<svg width="18" height="18" viewBox="0 0 18 18" fill="none" xmlns="http://www.w3.org/2000/svg">
<g clip-path="url(#clip0_8106_4630)">
<path opacity="0.3" d="M9 17.25C13.5563 17.25 17.25 13.5563 17.25 9C17.25 4.44365 13.5563 0.75 9 0.75C4.44365 0.75 0.75 4.44365 0.75 9C0.75 13.5563 4.44365 17.25 9 17.25Z" fill="#F9F9F9"/>
<path d="M13.1248 8.1748H9.8248V4.8748C9.8248 4.656 9.73788 4.44616 9.58317 4.29144C9.42845 4.13672 9.21861 4.0498 8.9998 4.0498C8.781 4.0498 8.57116 4.13672 8.41644 4.29144C8.26172 4.44616 8.1748 4.656 8.1748 4.8748V8.1748H4.8748C4.656 8.1748 4.44616 8.26172 4.29144 8.41644C4.13672 8.57116 4.0498 8.781 4.0498 8.9998C4.0498 9.21861 4.13672 9.42845 4.29144 9.58317C4.44616 9.73788 4.656 9.8248 4.8748 9.8248H8.1748V13.1248C8.1748 13.3436 8.26172 13.5535 8.41644 13.7082C8.57116 13.8629 8.781 13.9498 8.9998 13.9498C9.21861 13.9498 9.42845 13.8629 9.58317 13.7082C9.73788 13.5535 9.8248 13.3436 9.8248 13.1248V9.8248H13.1248C13.3436 9.8248 13.5535 9.73788 13.7082 9.58317C13.8629 9.42845 13.9498 9.21861 13.9498 8.9998C13.9498 8.781 13.8629 8.57116 13.7082 8.41644C13.5535 8.26172 13.3436 8.1748 13.1248 8.1748Z" fill="#F9F9F9"/>
</g>
<defs>
<clipPath id="clip0_8106_4630">
<rect width="18" height="18" fill="white"/>
</clipPath>
</defs>
</svg>
