<svg width="34" height="34" viewBox="0 0 34 34" fill="none" xmlns="http://www.w3.org/2000/svg">
<path opacity="0.3" d="M16.9998 32.5837C25.6063 32.5837 32.5832 25.6068 32.5832 17.0003C32.5832 8.39389 25.6063 1.41699 16.9998 1.41699C8.3934 1.41699 1.4165 8.39389 1.4165 17.0003C1.4165 25.6068 8.3934 32.5837 16.9998 32.5837Z" fill="#DFA000"/>
<path d="M17 14.8174C17.4132 14.8174 17.8094 14.9822 18.1016 15.2744C18.3938 15.5666 18.5586 15.9627 18.5586 16.376V23.6377C18.5586 24.051 18.3938 24.448 18.1016 24.7402C17.8094 25.0323 17.4131 25.1963 17 25.1963C16.5869 25.1963 16.1906 25.0322 15.8984 24.7402C15.6062 24.448 15.4414 24.051 15.4414 23.6377V16.376C15.4414 15.9627 15.6062 15.5666 15.8984 15.2744C16.1907 14.9823 16.5868 14.8174 17 14.8174ZM17 8.80273C18.0758 8.80273 18.9482 9.67523 18.9482 10.751C18.9482 11.8268 18.0758 12.6992 17 12.6992C15.9242 12.6992 15.0518 11.8268 15.0518 10.751C15.0518 9.67523 15.9242 8.80273 17 8.80273Z" fill="#DFA000"/>
</svg>
