<svg width="650" height="185" viewBox="0 0 650 185" fill="none" xmlns="http://www.w3.org/2000/svg">
<circle cx="92.5" cy="92.5" r="92.5" fill="#3B82F6"/>
<path d="M93.9376 0.0111806C72.2009 -0.326679 51.0397 7.00211 34.168 20.7113C17.2962 34.4204 5.79218 53.634 1.67459 74.9798C-2.443 96.3256 1.08896 118.44 11.6509 137.441C22.2129 156.442 39.1298 171.116 59.4325 178.887L64.5418 121.35L76.7363 88.336L92.2026 46.9936L93.9376 0.0111806Z" fill="#0EA5E9"/>
<path d="M56.9439 7.10693C43.7472 12.6018 32.0035 21.0805 22.6349 31.8775C13.2662 42.6745 6.52744 55.496 2.94754 69.3354C-0.632358 83.1749 -0.955961 97.6558 2.00213 111.641C4.96022 125.627 11.1195 138.737 19.9965 149.941L43.4244 83.5774L56.9439 7.10693Z" fill="#06B6D4"/>
<path d="M116.422 3.12279C120.341 25.5379 118.837 55.8839 100.773 92.0117C83.2546 127.049 83.4752 154.935 87.6548 173.743C88.5821 177.918 89.712 181.674 90.9048 184.986C91.4353 184.995 91.9671 185 92.4999 185C143.586 185 185 143.586 185 92.5001C185 49.686 155.913 13.6655 116.422 3.12279Z" fill="#F59E0B"/>
<path d="M81.5299 0.64334C85.9995 23.2781 85.0814 54.5343 66.3428 92.0117C48.8242 127.049 49.0448 154.935 53.2244 173.743C53.4399 174.714 53.6666 175.662 53.9024 176.587C59.2577 179.049 64.8891 181.015 70.737 182.425C70.3346 180.919 69.9521 179.362 69.5951 177.756C64.5247 154.939 64.7448 122.701 84.2263 83.7385C101.745 48.7008 101.524 20.8144 97.3446 2.00632C97.2017 1.36206 97.0537 0.727035 96.9011 0.102659C95.4428 0.034209 93.9753 -1.76013e-06 92.4999 -1.69564e-06C88.7884 -1.5334e-06 85.1277 0.218302 81.5299 0.64334Z" fill="#3B82F6"/>
<path fill-rule="evenodd" clip-rule="evenodd" d="M32.8949 163.238C26.737 158.044 21.2668 152.06 16.6401 145.444C17.5473 130.297 21.7383 112.36 31.9124 92.0117C47.9339 59.9678 50.9281 32.4721 48.666 11.0246C53.3687 8.48965 58.3156 6.34921 63.4628 4.64906C67.0768 23.385 66.5116 50.3062 49.7959 83.7385C34.142 115.046 30.9243 142.012 32.8949 163.238Z" fill="#0EA5E9"/>
<path d="M30.8332 23.5533C11.9094 40.4905 -5.24081e-06 65.1043 -4.0433e-06 92.5001C-3.69163e-06 100.545 1.02724 108.351 2.95759 115.793C5.70764 105.714 9.73093 95.0073 15.3655 83.7385C27.0957 60.2777 30.8726 40.0229 30.8332 23.5533Z" fill="#06B6D4"/>
<path d="M222.03 159.401C220.863 159.401 219.778 159.296 218.775 159.086C217.772 158.876 216.932 158.526 216.255 158.036C215.788 157.686 215.427 157.242 215.17 156.706C214.937 156.169 214.82 155.621 214.82 155.061C214.82 154.361 215.018 153.707 215.415 153.101C215.812 152.494 216.442 152.086 217.305 151.876C217.422 151.852 217.527 151.841 217.62 151.841C217.737 151.817 217.842 151.806 217.935 151.806C218.402 151.806 218.81 151.911 219.16 152.121C219.533 152.331 219.79 152.576 219.93 152.856C219.837 152.926 219.708 153.054 219.545 153.241C219.382 153.404 219.277 153.544 219.23 153.661C218.88 154.244 218.705 154.827 218.705 155.411C218.705 156.204 219.008 156.857 219.615 157.371C220.245 157.861 221.062 158.106 222.065 158.106C222.975 158.106 223.827 157.884 224.62 157.441C225.437 156.974 226.09 156.356 226.58 155.586C227.093 154.816 227.35 153.929 227.35 152.926C227.35 152.179 227.175 151.386 226.825 150.546C226.522 149.822 226.102 149.181 225.565 148.621C225.052 148.061 224.562 147.536 224.095 147.046C223.465 146.369 222.858 145.716 222.275 145.086C221.715 144.432 221.248 143.732 220.875 142.986C220.525 142.216 220.35 141.352 220.35 140.396C220.35 139.486 220.537 138.599 220.91 137.736C221.307 136.872 221.867 136.137 222.59 135.531C223.407 134.831 224.34 134.341 225.39 134.061C226.44 133.781 227.537 133.641 228.68 133.641C230.103 133.641 231.223 133.827 232.04 134.201C232.88 134.551 233.475 135.006 233.825 135.566C234.198 136.126 234.385 136.721 234.385 137.351C234.385 137.957 234.245 138.541 233.965 139.101C233.708 139.661 233.347 140.139 232.88 140.536C232.413 140.909 231.9 141.142 231.34 141.236C231.247 141.259 231.153 141.271 231.06 141.271C230.967 141.271 230.862 141.271 230.745 141.271C230.232 141.271 229.777 141.154 229.38 140.921C229.007 140.687 228.82 140.291 228.82 139.731C228.82 139.661 228.82 139.579 228.82 139.486C228.843 139.392 228.867 139.299 228.89 139.206C229.31 139.206 229.742 139.054 230.185 138.751C230.628 138.447 230.92 138.109 231.06 137.736C231.177 137.432 231.235 137.152 231.235 136.896C231.235 136.266 230.943 135.776 230.36 135.426C229.8 135.052 229.135 134.866 228.365 134.866C227.455 134.866 226.638 135.064 225.915 135.461C225.215 135.834 224.667 136.336 224.27 136.966C223.873 137.572 223.675 138.237 223.675 138.961C223.675 139.684 223.897 140.384 224.34 141.061C224.713 141.597 225.18 142.157 225.74 142.741C226.3 143.301 226.872 143.849 227.455 144.386C228.038 144.899 228.54 145.377 228.96 145.821C229.917 146.754 230.605 147.711 231.025 148.691C231.445 149.647 231.655 150.592 231.655 151.526C231.655 152.599 231.398 153.614 230.885 154.571C230.395 155.504 229.707 156.332 228.82 157.056C227.933 157.779 226.907 158.351 225.74 158.771C224.573 159.191 223.337 159.401 222.03 159.401ZM234.225 158.911C233.619 158.911 233.117 158.631 232.72 158.071C232.347 157.487 232.207 156.589 232.3 155.376C232.347 154.862 232.464 154.209 232.65 153.416C232.837 152.622 233.082 151.771 233.385 150.861C233.712 149.927 234.074 149.029 234.47 148.166C234.867 147.279 235.299 146.497 235.765 145.821C236.022 145.471 236.279 145.261 236.535 145.191C236.815 145.097 237.317 145.051 238.04 145.051H239.72C239.324 145.611 238.904 146.311 238.46 147.151C238.017 147.991 237.609 148.831 237.235 149.671C236.862 150.487 236.57 151.176 236.36 151.736C236.314 151.899 236.22 152.191 236.08 152.611C235.94 153.007 235.812 153.451 235.695 153.941C235.579 154.431 235.52 154.886 235.52 155.306C235.52 155.679 235.59 155.994 235.73 156.251C235.87 156.507 236.127 156.636 236.5 156.636C236.944 156.612 237.422 156.332 237.935 155.796C238.449 155.259 238.962 154.571 239.475 153.731C239.989 152.891 240.49 152.016 240.98 151.106C241.494 150.172 241.949 149.309 242.345 148.516C242.765 147.699 243.115 147.069 243.395 146.626C243.745 146.089 244.119 145.622 244.515 145.226C244.912 144.806 245.367 144.596 245.88 144.596C246.067 144.596 246.312 144.607 246.615 144.631C246.942 144.631 247.257 144.631 247.56 144.631C247.887 144.631 248.109 144.619 248.225 144.596C248.085 144.689 247.922 144.876 247.735 145.156C247.549 145.436 247.362 145.727 247.175 146.031C247.012 146.311 246.884 146.544 246.79 146.731C246.184 147.944 245.589 149.169 245.005 150.406C244.445 151.619 244.025 152.774 243.745 153.871C243.629 154.291 243.57 154.652 243.57 154.956C243.57 155.656 243.804 156.006 244.27 156.006C244.597 156.006 245.064 155.772 245.67 155.306C246.137 154.932 246.592 154.454 247.035 153.871C247.525 153.264 247.98 152.611 248.4 151.911C248.82 151.211 249.182 150.569 249.485 149.986C249.579 149.822 249.66 149.741 249.73 149.741C249.87 149.741 249.94 149.927 249.94 150.301C249.94 150.487 249.905 150.709 249.835 150.966C249.789 151.199 249.695 151.432 249.555 151.666C249.229 152.226 248.844 152.844 248.4 153.521C247.957 154.174 247.502 154.827 247.035 155.481C246.709 155.901 246.277 156.379 245.74 156.916C245.204 157.452 244.632 157.919 244.025 158.316C243.442 158.712 242.87 158.911 242.31 158.911C241.984 158.911 241.68 158.841 241.4 158.701C241.12 158.584 240.887 158.339 240.7 157.966C240.467 157.476 240.35 156.811 240.35 155.971C240.35 155.714 240.362 155.446 240.385 155.166C240.409 154.862 240.444 154.559 240.49 154.256C240.14 154.746 239.767 155.201 239.37 155.621C238.997 156.041 238.612 156.461 238.215 156.881C237.329 157.767 236.57 158.327 235.94 158.561C235.334 158.794 234.762 158.911 234.225 158.911ZM242.773 167.381C242.89 167.217 243.041 166.926 243.228 166.506C243.415 166.109 243.613 165.677 243.823 165.211C244.033 164.744 244.208 164.347 244.348 164.021C244.745 163.041 245.2 161.839 245.713 160.416C246.226 159.016 246.751 157.546 247.288 156.006C247.825 154.466 248.338 152.996 248.828 151.596C249.318 150.196 249.75 149.041 250.123 148.131C250.473 147.291 250.776 146.626 251.033 146.136C251.29 145.622 251.651 145.261 252.118 145.051C252.608 144.817 253.343 144.701 254.323 144.701H255.373C255.046 144.934 254.615 145.471 254.078 146.311C253.565 147.127 253.075 147.991 252.608 148.901C252.771 148.691 252.923 148.492 253.063 148.306C253.203 148.096 253.355 147.909 253.518 147.746C254.265 146.836 255.058 146.077 255.898 145.471C256.738 144.864 257.555 144.561 258.348 144.561C259.001 144.561 259.55 144.806 259.993 145.296C260.46 145.786 260.693 146.614 260.693 147.781C260.693 148.854 260.483 149.939 260.063 151.036C259.666 152.109 259.13 153.136 258.453 154.116C257.776 155.072 257.03 155.924 256.213 156.671C256.05 156.834 255.863 156.997 255.653 157.161C255.466 157.301 255.268 157.441 255.058 157.581C255.805 157.651 256.54 157.476 257.263 157.056C258.01 156.636 258.686 156.122 259.293 155.516C259.923 154.909 260.436 154.361 260.833 153.871C261.3 153.264 261.766 152.564 262.233 151.771C262.723 150.977 263.12 150.277 263.423 149.671C263.516 149.507 263.598 149.426 263.668 149.426C263.855 149.426 263.948 149.636 263.948 150.056C263.948 150.429 263.831 150.814 263.598 151.211C263.411 151.561 263.155 152.004 262.828 152.541C262.501 153.077 262.21 153.544 261.953 153.941C260.88 155.504 259.631 156.787 258.208 157.791C256.785 158.794 255.07 159.296 253.063 159.296C252.9 159.296 252.725 159.296 252.538 159.296C252.375 159.296 252.2 159.284 252.013 159.261C251.453 159.214 250.928 159.074 250.438 158.841C249.948 158.631 249.621 158.222 249.458 157.616L247.498 163.741C247.241 164.557 247.008 165.234 246.798 165.771C246.565 166.307 246.285 166.704 245.958 166.961C245.608 167.241 245.106 167.381 244.453 167.381H242.773ZM251.208 157.791C251.605 157.791 252.06 157.592 252.573 157.196C253.086 156.776 253.588 156.262 254.078 155.656C254.591 155.026 255.023 154.419 255.373 153.836C255.91 152.902 256.365 151.946 256.738 150.966C257.111 149.986 257.298 149.181 257.298 148.551C257.298 147.851 257.018 147.501 256.458 147.501C255.968 147.501 255.431 147.734 254.848 148.201C254.428 148.527 253.95 149.006 253.413 149.636C252.9 150.266 252.386 150.977 251.873 151.771C251.383 152.541 250.975 153.334 250.648 154.151C250.345 154.944 250.193 155.667 250.193 156.321C250.193 156.437 250.193 156.554 250.193 156.671C250.216 156.764 250.24 156.869 250.263 156.986C250.38 157.522 250.695 157.791 251.208 157.791ZM256.547 167.381C256.664 167.217 256.816 166.926 257.002 166.506C257.189 166.109 257.387 165.677 257.597 165.211C257.807 164.744 257.982 164.347 258.122 164.021C258.519 163.041 258.974 161.839 259.487 160.416C260.001 159.016 260.526 157.546 261.062 156.006C261.599 154.466 262.112 152.996 262.602 151.596C263.092 150.196 263.524 149.041 263.897 148.131C264.247 147.291 264.551 146.626 264.807 146.136C265.064 145.622 265.426 145.261 265.892 145.051C266.382 144.817 267.117 144.701 268.097 144.701H269.147C268.821 144.934 268.389 145.471 267.852 146.311C267.339 147.127 266.849 147.991 266.382 148.901C266.546 148.691 266.697 148.492 266.837 148.306C266.977 148.096 267.129 147.909 267.292 147.746C268.039 146.836 268.832 146.077 269.672 145.471C270.512 144.864 271.329 144.561 272.122 144.561C272.776 144.561 273.324 144.806 273.767 145.296C274.234 145.786 274.467 146.614 274.467 147.781C274.467 148.854 274.257 149.939 273.837 151.036C273.441 152.109 272.904 153.136 272.227 154.116C271.551 155.072 270.804 155.924 269.987 156.671C269.824 156.834 269.637 156.997 269.427 157.161C269.241 157.301 269.042 157.441 268.832 157.581C269.579 157.651 270.314 157.476 271.037 157.056C271.784 156.636 272.461 156.122 273.067 155.516C273.697 154.909 274.211 154.361 274.607 153.871C275.074 153.264 275.541 152.564 276.007 151.771C276.497 150.977 276.894 150.277 277.197 149.671C277.291 149.507 277.372 149.426 277.442 149.426C277.629 149.426 277.722 149.636 277.722 150.056C277.722 150.429 277.606 150.814 277.372 151.211C277.186 151.561 276.929 152.004 276.602 152.541C276.276 153.077 275.984 153.544 275.727 153.941C274.654 155.504 273.406 156.787 271.982 157.791C270.559 158.794 268.844 159.296 266.837 159.296C266.674 159.296 266.499 159.296 266.312 159.296C266.149 159.296 265.974 159.284 265.787 159.261C265.227 159.214 264.702 159.074 264.212 158.841C263.722 158.631 263.396 158.222 263.232 157.616L261.272 163.741C261.016 164.557 260.782 165.234 260.572 165.771C260.339 166.307 260.059 166.704 259.732 166.961C259.382 167.241 258.881 167.381 258.227 167.381H256.547ZM264.982 157.791C265.379 157.791 265.834 157.592 266.347 157.196C266.861 156.776 267.362 156.262 267.852 155.656C268.366 155.026 268.797 154.419 269.147 153.836C269.684 152.902 270.139 151.946 270.512 150.966C270.886 149.986 271.072 149.181 271.072 148.551C271.072 147.851 270.792 147.501 270.232 147.501C269.742 147.501 269.206 147.734 268.622 148.201C268.202 148.527 267.724 149.006 267.187 149.636C266.674 150.266 266.161 150.977 265.647 151.771C265.157 152.541 264.749 153.334 264.422 154.151C264.119 154.944 263.967 155.667 263.967 156.321C263.967 156.437 263.967 156.554 263.967 156.671C263.991 156.764 264.014 156.869 264.037 156.986C264.154 157.522 264.469 157.791 264.982 157.791ZM277.637 158.911C276.983 158.911 276.493 158.677 276.167 158.211C275.84 157.721 275.677 157.067 275.677 156.251C275.677 156.134 275.677 156.017 275.677 155.901C275.677 155.784 275.688 155.667 275.712 155.551C275.828 154.664 276.027 153.661 276.307 152.541C276.61 151.421 276.96 150.242 277.357 149.006C277.59 148.306 277.882 147.431 278.232 146.381C278.605 145.307 279.037 144.164 279.527 142.951C280.017 141.714 280.553 140.489 281.137 139.276C281.743 138.062 282.408 136.966 283.132 135.986C283.855 134.982 284.613 134.177 285.407 133.571C286.223 132.964 287.087 132.661 287.997 132.661C288.743 132.661 289.257 132.847 289.537 133.221C289.817 133.571 289.957 133.991 289.957 134.481C289.957 134.994 289.863 135.519 289.677 136.056C289.49 136.569 289.303 137.001 289.117 137.351C288.697 138.191 288.148 139.136 287.472 140.186C286.795 141.236 286.083 142.216 285.337 143.126C284.893 143.709 284.345 144.362 283.692 145.086C283.038 145.809 282.42 146.474 281.837 147.081C281.277 147.687 280.868 148.107 280.612 148.341L280.052 149.951C279.888 150.394 279.725 150.919 279.562 151.526C279.422 152.132 279.293 152.739 279.177 153.346C279.083 153.929 279.002 154.442 278.932 154.886C278.908 154.979 278.897 155.072 278.897 155.166C278.897 155.259 278.897 155.341 278.897 155.411C278.897 156.111 279.165 156.461 279.702 156.461C280.028 156.461 280.437 156.309 280.927 156.006C281.393 155.726 281.837 155.364 282.257 154.921C282.7 154.454 283.015 154.104 283.202 153.871C283.668 153.264 284.112 152.622 284.532 151.946C284.952 151.246 285.313 150.604 285.617 150.021C285.733 149.834 285.815 149.741 285.862 149.741C286.002 149.741 286.072 149.939 286.072 150.336C286.072 150.522 286.037 150.744 285.967 151.001C285.92 151.234 285.838 151.456 285.722 151.666C285.395 152.226 285.01 152.844 284.567 153.521C284.123 154.197 283.668 154.851 283.202 155.481C282.852 155.947 282.362 156.449 281.732 156.986C281.102 157.522 280.425 157.977 279.702 158.351C278.978 158.724 278.29 158.911 277.637 158.911ZM281.312 146.346C282.478 144.969 283.657 143.499 284.847 141.936C286.06 140.349 287.063 138.739 287.857 137.106C287.903 136.989 288.008 136.756 288.172 136.406C288.335 136.056 288.487 135.671 288.627 135.251C288.767 134.807 288.837 134.434 288.837 134.131C288.837 133.734 288.685 133.536 288.382 133.536H288.137C287.833 133.536 287.472 133.746 287.052 134.166C286.655 134.586 286.247 135.146 285.827 135.846C285.29 136.732 284.765 137.759 284.252 138.926C283.738 140.069 283.237 141.282 282.747 142.566C282.257 143.849 281.778 145.109 281.312 146.346ZM285.584 165.736C285.001 165.736 284.383 165.642 283.729 165.456C283.099 165.292 282.574 165.001 282.154 164.581C281.711 164.161 281.489 163.601 281.489 162.901C281.489 162.411 281.641 161.956 281.944 161.536C282.248 161.116 282.668 160.906 283.204 160.906C283.531 160.906 283.834 160.987 284.114 161.151C284.394 161.337 284.581 161.559 284.674 161.816C284.628 161.839 284.558 161.909 284.464 162.026C284.371 162.142 284.313 162.224 284.289 162.271C284.126 162.597 284.044 162.936 284.044 163.286C284.044 163.729 284.196 164.079 284.499 164.336C284.826 164.616 285.234 164.756 285.724 164.756C286.354 164.756 287.008 164.522 287.684 164.056C288.431 163.519 289.014 162.819 289.434 161.956C289.878 161.116 290.228 160.357 290.484 159.681L292.479 154.361C292.059 154.874 291.616 155.399 291.149 155.936C290.706 156.449 290.426 156.764 290.309 156.881C289.423 157.767 288.629 158.327 287.929 158.561C287.229 158.794 286.611 158.911 286.074 158.911C285.514 158.911 285.036 158.666 284.639 158.176C284.266 157.686 284.079 156.974 284.079 156.041C284.079 155.574 284.149 154.979 284.289 154.256C284.429 153.532 284.628 152.762 284.884 151.946C285.141 151.106 285.433 150.289 285.759 149.496C286.109 148.679 286.483 147.956 286.879 147.326C287.486 146.369 288.163 145.751 288.909 145.471C289.656 145.191 290.601 145.051 291.744 145.051C291.838 145.051 291.884 145.097 291.884 145.191C291.884 145.284 291.814 145.401 291.674 145.541C291.348 145.821 290.951 146.311 290.484 147.011C290.018 147.711 289.563 148.481 289.119 149.321C288.699 150.161 288.349 150.966 288.069 151.736C287.883 152.272 287.696 152.902 287.509 153.626C287.346 154.349 287.264 154.979 287.264 155.516C287.264 155.889 287.311 156.192 287.404 156.426C287.521 156.636 287.696 156.741 287.929 156.741C288.303 156.741 288.816 156.461 289.469 155.901C290.449 155.084 291.336 154.081 292.129 152.891C292.923 151.701 293.599 150.464 294.159 149.181C294.486 148.434 294.754 147.804 294.964 147.291C295.174 146.754 295.408 146.322 295.664 145.996C295.921 145.669 296.283 145.436 296.749 145.296C297.216 145.132 297.846 145.051 298.639 145.051H300.074C299.631 145.331 299.188 145.856 298.744 146.626C298.301 147.372 297.881 148.259 297.484 149.286C297.181 150.032 296.866 150.849 296.539 151.736C296.236 152.622 295.921 153.521 295.594 154.431C295.314 155.271 295.011 156.192 294.684 157.196C294.358 158.176 293.984 159.132 293.564 160.066C293.144 161.022 292.654 161.851 292.094 162.551C291.301 163.531 290.333 164.301 289.189 164.861C288.046 165.444 286.844 165.736 285.584 165.736ZM316.091 159.541C314.131 159.214 312.696 158.362 311.786 156.986C310.899 155.609 310.456 153.976 310.456 152.086C310.456 150.709 310.677 149.274 311.121 147.781C311.564 146.264 312.194 144.782 313.011 143.336C313.851 141.889 314.854 140.547 316.021 139.311C317.187 138.051 318.506 136.977 319.976 136.091C321.446 135.204 323.044 134.586 324.771 134.236C325.821 134.026 326.824 133.921 327.781 133.921C329.647 133.921 331.141 134.294 332.261 135.041C333.381 135.764 333.941 136.697 333.941 137.841C333.941 138.074 333.917 138.307 333.871 138.541C333.847 138.751 333.777 138.984 333.661 139.241C333.404 139.917 332.972 140.524 332.366 141.061C331.782 141.574 331.106 141.971 330.336 142.251C329.589 142.531 328.819 142.647 328.026 142.601C327.652 142.554 327.326 142.426 327.046 142.216C326.789 141.982 326.661 141.702 326.661 141.376C326.661 141.049 326.801 140.699 327.081 140.326C327.337 140.419 327.629 140.466 327.956 140.466C328.539 140.466 329.111 140.326 329.671 140.046C330.231 139.766 330.697 139.381 331.071 138.891C331.444 138.401 331.631 137.852 331.631 137.246C331.631 136.429 331.351 135.892 330.791 135.636C330.231 135.356 329.601 135.216 328.901 135.216C328.434 135.216 327.967 135.262 327.501 135.356C327.057 135.426 326.696 135.496 326.416 135.566C325.086 135.916 323.721 136.557 322.321 137.491C320.944 138.401 319.684 139.521 318.541 140.851C317.397 142.157 316.511 143.592 315.881 145.156C315.414 146.299 315.052 147.454 314.796 148.621C314.539 149.787 314.411 150.896 314.411 151.946C314.411 153.299 314.632 154.489 315.076 155.516C315.542 156.542 316.277 157.254 317.281 157.651C318.191 158.001 319.124 158.176 320.081 158.176C321.621 158.176 323.172 157.802 324.736 157.056C326.322 156.309 327.781 155.364 329.111 154.221C329.927 153.497 330.662 152.751 331.316 151.981C331.969 151.211 332.471 150.394 332.821 149.531C333.264 149.811 333.486 150.219 333.486 150.756C333.486 151.176 333.357 151.631 333.101 152.121C332.867 152.611 332.587 153.066 332.261 153.486C331.957 153.906 331.689 154.232 331.456 154.466C329.822 156.169 327.862 157.476 325.576 158.386C323.312 159.296 321.014 159.751 318.681 159.751C317.794 159.751 316.931 159.681 316.091 159.541ZM342.96 158.911C342.166 158.911 341.618 158.677 341.315 158.211C341.035 157.721 340.895 157.161 340.895 156.531C340.895 155.854 341 155.072 341.21 154.186C341.443 153.276 341.723 152.342 342.05 151.386C342.4 150.406 342.75 149.496 343.1 148.656C343.216 148.376 343.321 148.072 343.415 147.746C343.531 147.419 343.59 147.127 343.59 146.871C343.59 146.404 343.38 146.171 342.96 146.171C342.796 146.171 342.61 146.206 342.4 146.276C342.19 146.322 341.945 146.427 341.665 146.591C341.175 146.824 340.708 147.151 340.265 147.571C339.821 147.967 339.518 148.271 339.355 148.481C339.051 148.854 338.76 149.274 338.48 149.741C338.2 150.184 337.955 150.639 337.745 151.106C337.278 152.109 336.905 153.066 336.625 153.976C336.368 154.862 336.123 155.621 335.89 156.251C335.75 156.647 335.61 157.056 335.47 157.476C335.33 157.896 335.201 158.304 335.085 158.701H331.69C331.69 158.701 331.771 158.409 331.935 157.826C332.098 157.242 332.296 156.659 332.53 156.076C333.603 153.299 334.618 150.464 335.575 147.571C336.531 144.677 337.686 141.901 339.04 139.241C339.646 138.051 340.3 136.954 341 135.951C341.723 134.947 342.481 134.154 343.275 133.571C344.091 132.964 344.943 132.661 345.83 132.661C346.53 132.661 347.008 132.824 347.265 133.151C347.545 133.454 347.685 133.839 347.685 134.306C347.685 134.819 347.58 135.356 347.37 135.916C347.16 136.476 346.95 136.954 346.74 137.351C346.32 138.191 345.771 139.136 345.095 140.186C344.418 141.236 343.706 142.216 342.96 143.126C342.796 143.336 342.516 143.674 342.12 144.141C341.723 144.584 341.315 145.039 340.895 145.506C340.498 145.972 340.183 146.334 339.95 146.591C340.72 146.031 341.385 145.599 341.945 145.296C342.505 144.992 342.983 144.782 343.38 144.666C344.056 144.479 344.616 144.386 345.06 144.386C346.39 144.386 347.055 144.969 347.055 146.136C347.055 146.626 346.915 147.209 346.635 147.886C346.495 148.259 346.296 148.761 346.04 149.391C345.783 150.021 345.515 150.697 345.235 151.421C344.978 152.121 344.756 152.797 344.57 153.451C344.406 154.104 344.325 154.641 344.325 155.061C344.325 155.317 344.36 155.551 344.43 155.761C344.523 155.947 344.686 156.041 344.92 156.041C345.083 156.041 345.316 155.959 345.62 155.796C346.273 155.422 346.88 154.897 347.44 154.221C348.023 153.544 348.536 152.821 348.98 152.051C349.446 151.281 349.843 150.581 350.17 149.951C350.24 149.787 350.321 149.706 350.415 149.706C350.531 149.706 350.59 149.904 350.59 150.301C350.59 150.487 350.566 150.709 350.52 150.966C350.473 151.199 350.38 151.432 350.24 151.666C349.913 152.226 349.481 152.914 348.945 153.731C348.431 154.547 347.848 155.352 347.195 156.146C346.541 156.916 345.853 157.569 345.13 158.106C344.406 158.642 343.683 158.911 342.96 158.911ZM338.935 146.346C340.101 144.969 341.28 143.499 342.47 141.936C343.683 140.349 344.686 138.739 345.48 137.106C345.526 136.989 345.631 136.756 345.795 136.406C345.958 136.056 346.11 135.671 346.25 135.251C346.39 134.807 346.46 134.434 346.46 134.131C346.46 133.734 346.308 133.536 346.005 133.536C345.701 133.536 345.34 133.746 344.92 134.166C344.523 134.586 344.115 135.146 343.695 135.846C343.158 136.732 342.61 137.759 342.05 138.926C341.49 140.069 340.941 141.282 340.405 142.566C339.891 143.849 339.401 145.109 338.935 146.346ZM359.601 158.911C358.878 158.911 358.376 158.631 358.096 158.071C357.84 157.511 357.711 156.822 357.711 156.006C357.711 155.259 357.781 154.524 357.921 153.801C357.991 153.474 358.061 153.147 358.131 152.821C358.225 152.471 358.33 152.109 358.446 151.736C358.05 152.459 357.63 153.159 357.186 153.836C356.766 154.512 356.335 155.107 355.891 155.621C355.145 156.531 354.351 157.289 353.511 157.896C352.695 158.502 351.878 158.806 351.061 158.806C350.408 158.806 349.848 158.572 349.381 158.106C348.938 157.616 348.716 156.776 348.716 155.586C348.716 154.372 348.926 153.124 349.346 151.841C349.766 150.557 350.35 149.367 351.096 148.271C351.866 147.151 352.765 146.252 353.791 145.576C354.841 144.899 355.985 144.561 357.221 144.561C357.618 144.561 358.05 144.619 358.516 144.736C358.983 144.852 359.415 145.074 359.811 145.401C360.208 145.704 360.476 146.136 360.616 146.696C360.64 146.649 360.663 146.614 360.686 146.591C360.733 146.567 360.768 146.544 360.791 146.521C361.118 146.007 361.491 145.576 361.911 145.226C362.331 144.876 362.798 144.701 363.311 144.701C363.568 144.701 363.93 144.712 364.396 144.736C364.863 144.759 365.201 144.759 365.411 144.736C365.295 144.829 365.131 145.016 364.921 145.296C364.735 145.576 364.56 145.867 364.396 146.171C364.233 146.451 364.105 146.672 364.011 146.836C363.381 148.049 362.81 149.251 362.296 150.441C361.783 151.631 361.386 152.774 361.106 153.871C361.036 154.104 360.99 154.326 360.966 154.536C360.943 154.722 360.931 154.909 360.931 155.096C360.931 155.702 361.13 156.006 361.526 156.006C361.9 156.006 362.366 155.772 362.926 155.306C363.743 154.652 364.455 153.836 365.061 152.856C365.691 151.876 366.24 150.931 366.706 150.021C366.8 149.857 366.881 149.776 366.951 149.776C367.091 149.776 367.161 149.974 367.161 150.371C367.161 150.557 367.126 150.767 367.056 151.001C367.01 151.234 366.928 151.456 366.811 151.666C366.485 152.226 366.053 152.914 365.516 153.731C365.003 154.547 364.42 155.352 363.766 156.146C363.113 156.916 362.425 157.569 361.701 158.106C361.001 158.642 360.301 158.911 359.601 158.911ZM352.636 155.866C352.706 155.889 352.811 155.901 352.951 155.901C353.395 155.901 353.873 155.714 354.386 155.341C354.9 154.967 355.413 154.489 355.926 153.906C356.44 153.299 356.895 152.692 357.291 152.086C358.318 150.452 359.076 149.227 359.566 148.411C360.056 147.594 360.336 147.127 360.406 147.011C360.29 146.614 360.08 146.322 359.776 146.136C359.496 145.949 359.158 145.856 358.761 145.856C358.248 145.856 357.7 145.996 357.116 146.276C356.556 146.556 356.078 146.894 355.681 147.291C355.075 147.897 354.491 148.679 353.931 149.636C353.395 150.592 352.951 151.537 352.601 152.471C352.275 153.404 352.111 154.186 352.111 154.816C352.111 155.399 352.286 155.749 352.636 155.866ZM373.134 141.901C372.528 141.691 372.224 141.294 372.224 140.711C372.224 140.174 372.434 139.626 372.854 139.066C373.298 138.482 373.776 138.109 374.289 137.946C374.406 137.899 374.499 137.876 374.569 137.876C374.663 137.876 374.756 137.876 374.849 137.876C375.246 137.876 375.573 137.992 375.829 138.226C376.086 138.459 376.214 138.727 376.214 139.031C376.214 139.451 375.993 139.801 375.549 140.081C375.199 140.034 374.861 140.116 374.534 140.326C374.208 140.536 373.916 140.792 373.659 141.096C373.426 141.399 373.251 141.667 373.134 141.901ZM367.114 158.911C366.811 158.911 366.519 158.841 366.239 158.701C365.959 158.584 365.726 158.339 365.539 157.966C365.283 157.406 365.154 156.741 365.154 155.971C365.154 155.131 365.283 154.197 365.539 153.171C365.796 152.121 366.134 151.047 366.554 149.951C366.718 149.554 366.928 149.064 367.184 148.481C367.441 147.897 367.744 147.314 368.094 146.731C368.444 146.147 368.841 145.669 369.284 145.296C369.751 144.899 370.253 144.701 370.789 144.701C371.046 144.701 371.408 144.712 371.874 144.736C372.341 144.759 372.679 144.759 372.889 144.736C372.749 144.829 372.586 145.016 372.399 145.296C372.213 145.576 372.038 145.867 371.874 146.171C371.711 146.451 371.583 146.672 371.489 146.836C370.883 148.049 370.311 149.251 369.774 150.441C369.238 151.631 368.829 152.774 368.549 153.871C368.503 154.057 368.468 154.244 368.444 154.431C368.421 154.617 368.409 154.792 368.409 154.956C368.409 155.632 368.631 155.971 369.074 155.971C369.261 155.971 369.459 155.924 369.669 155.831C369.903 155.714 370.171 155.539 370.474 155.306C371.011 154.886 371.478 154.407 371.874 153.871C372.341 153.264 372.784 152.622 373.204 151.946C373.624 151.246 373.986 150.604 374.289 150.021C374.406 149.834 374.488 149.741 374.534 149.741C374.674 149.741 374.744 149.939 374.744 150.336C374.744 150.522 374.709 150.744 374.639 151.001C374.593 151.234 374.511 151.456 374.394 151.666C374.068 152.226 373.683 152.844 373.239 153.521C372.796 154.197 372.341 154.851 371.874 155.481C371.548 155.924 371.116 156.414 370.579 156.951C370.043 157.487 369.471 157.954 368.864 158.351C368.258 158.724 367.674 158.911 367.114 158.911ZM382.367 158.911C381.574 158.911 381.026 158.677 380.722 158.211C380.442 157.721 380.302 157.161 380.302 156.531C380.302 155.761 380.454 154.839 380.757 153.766C381.061 152.669 381.411 151.572 381.807 150.476C382.227 149.356 382.601 148.364 382.927 147.501C383.021 147.291 383.067 147.069 383.067 146.836C383.067 146.579 382.986 146.392 382.822 146.276C382.659 146.159 382.449 146.101 382.192 146.101C381.819 146.101 381.399 146.217 380.932 146.451C380.209 146.824 379.521 147.419 378.867 148.236C378.214 149.052 377.689 149.904 377.292 150.791C376.849 151.794 376.452 152.797 376.102 153.801C375.752 154.804 375.472 155.621 375.262 156.251C375.122 156.647 374.994 157.056 374.877 157.476C374.761 157.896 374.644 158.304 374.527 158.701H371.132C371.132 158.701 371.214 158.409 371.377 157.826C371.517 157.242 371.704 156.659 371.937 156.076C372.334 155.049 372.731 154.022 373.127 152.996C373.547 151.969 373.909 151.059 374.212 150.266C374.306 150.032 374.446 149.601 374.632 148.971C374.842 148.317 375.029 147.641 375.192 146.941C375.379 146.241 375.472 145.669 375.472 145.226C375.472 144.969 375.437 144.794 375.367 144.701C375.577 144.701 375.811 144.701 376.067 144.701C376.347 144.677 376.604 144.666 376.837 144.666C377.164 144.666 377.467 144.677 377.747 144.701C378.051 144.724 378.249 144.782 378.342 144.876C378.622 145.086 378.762 145.389 378.762 145.786C378.762 146.066 378.704 146.346 378.587 146.626C378.494 146.906 378.424 147.139 378.377 147.326C378.704 147.022 379.042 146.731 379.392 146.451C379.742 146.171 380.279 145.809 381.002 145.366C381.422 145.109 381.947 144.899 382.577 144.736C383.207 144.572 383.779 144.491 384.292 144.491C385.622 144.491 386.287 145.109 386.287 146.346C386.287 146.556 386.264 146.789 386.217 147.046C386.194 147.302 386.124 147.582 386.007 147.886C385.891 148.259 385.704 148.772 385.447 149.426C385.191 150.079 384.922 150.779 384.642 151.526C384.386 152.249 384.164 152.937 383.977 153.591C383.791 154.244 383.697 154.769 383.697 155.166C383.697 155.726 383.907 156.006 384.327 156.006C384.701 156.006 385.167 155.772 385.727 155.306C386.264 154.862 386.731 154.384 387.127 153.871C387.617 153.264 388.061 152.622 388.457 151.946C388.877 151.246 389.239 150.604 389.542 150.021C389.659 149.834 389.741 149.741 389.787 149.741C389.927 149.741 389.997 149.939 389.997 150.336C389.997 150.522 389.962 150.744 389.892 151.001C389.846 151.234 389.764 151.456 389.647 151.666C389.321 152.226 388.936 152.844 388.492 153.521C388.049 154.197 387.594 154.851 387.127 155.481C386.801 155.924 386.369 156.414 385.832 156.951C385.296 157.487 384.724 157.954 384.117 158.351C383.511 158.724 382.927 158.911 382.367 158.911ZM398.934 158.701C399.214 157.534 399.588 156.239 400.054 154.816C400.544 153.369 401.093 151.864 401.699 150.301C402.329 148.737 402.971 147.186 403.624 145.646C404.278 144.106 404.908 142.636 405.514 141.236C406.121 139.812 406.821 138.377 407.614 136.931C407.778 136.651 407.918 136.394 408.034 136.161C408.174 135.927 408.326 135.729 408.489 135.566C407.579 135.589 406.599 135.706 405.549 135.916C404.523 136.102 403.531 136.371 402.574 136.721C401.641 137.071 400.836 137.479 400.159 137.946C399.506 138.412 399.086 138.926 398.899 139.486C398.876 139.556 398.829 139.591 398.759 139.591C398.549 139.591 398.444 139.427 398.444 139.101C398.444 139.031 398.468 138.926 398.514 138.786C398.724 138.179 398.981 137.642 399.284 137.176C399.611 136.709 399.938 136.312 400.264 135.986C401.034 135.192 401.898 134.714 402.854 134.551C403.811 134.364 404.826 134.271 405.899 134.271H413.809C413.249 134.691 412.654 135.379 412.024 136.336C411.394 137.269 410.776 138.319 410.169 139.486C409.563 140.652 408.991 141.796 408.454 142.916C407.941 144.036 407.509 144.981 407.159 145.751C406.996 146.124 406.763 146.696 406.459 147.466C406.156 148.212 405.818 149.064 405.444 150.021C405.094 150.977 404.756 151.969 404.429 152.996C404.103 153.999 403.834 154.932 403.624 155.796C403.414 156.659 403.309 157.371 403.309 157.931C403.309 158.094 403.321 158.246 403.344 158.386C403.391 158.502 403.426 158.607 403.449 158.701H398.934ZM419.657 158.911C418.864 158.911 418.316 158.677 418.012 158.211C417.732 157.721 417.592 157.161 417.592 156.531C417.592 155.761 417.744 154.839 418.047 153.766C418.351 152.669 418.701 151.572 419.097 150.476C419.517 149.356 419.891 148.364 420.217 147.501C420.311 147.291 420.357 147.069 420.357 146.836C420.357 146.579 420.276 146.392 420.112 146.276C419.949 146.159 419.739 146.101 419.482 146.101C419.109 146.101 418.689 146.217 418.222 146.451C417.499 146.824 416.811 147.419 416.157 148.236C415.504 149.052 414.979 149.904 414.582 150.791C414.139 151.794 413.742 152.797 413.392 153.801C413.042 154.804 412.762 155.621 412.552 156.251C412.412 156.647 412.284 157.056 412.167 157.476C412.051 157.896 411.934 158.304 411.817 158.701H408.422C408.422 158.701 408.504 158.409 408.667 157.826C408.807 157.242 408.994 156.659 409.227 156.076C409.624 155.049 410.021 154.022 410.417 152.996C410.837 151.969 411.199 151.059 411.502 150.266C411.596 150.032 411.736 149.601 411.922 148.971C412.132 148.317 412.319 147.641 412.482 146.941C412.669 146.241 412.762 145.669 412.762 145.226C412.762 144.969 412.727 144.794 412.657 144.701C412.867 144.701 413.101 144.701 413.357 144.701C413.637 144.677 413.894 144.666 414.127 144.666C414.454 144.666 414.757 144.677 415.037 144.701C415.341 144.724 415.539 144.782 415.632 144.876C415.912 145.086 416.052 145.389 416.052 145.786C416.052 146.066 415.994 146.346 415.877 146.626C415.784 146.906 415.714 147.139 415.667 147.326C415.994 147.022 416.332 146.731 416.682 146.451C417.032 146.171 417.569 145.809 418.292 145.366C418.712 145.109 419.237 144.899 419.867 144.736C420.497 144.572 421.069 144.491 421.582 144.491C422.912 144.491 423.577 145.109 423.577 146.346C423.577 146.556 423.554 146.789 423.507 147.046C423.484 147.302 423.414 147.582 423.297 147.886C423.181 148.259 422.994 148.772 422.737 149.426C422.481 150.079 422.212 150.779 421.932 151.526C421.676 152.249 421.454 152.937 421.267 153.591C421.081 154.244 420.987 154.769 420.987 155.166C420.987 155.726 421.197 156.006 421.617 156.006C421.991 156.006 422.457 155.772 423.017 155.306C423.554 154.862 424.021 154.384 424.417 153.871C424.907 153.264 425.351 152.622 425.747 151.946C426.167 151.246 426.529 150.604 426.832 150.021C426.949 149.834 427.031 149.741 427.077 149.741C427.217 149.741 427.287 149.939 427.287 150.336C427.287 150.522 427.252 150.744 427.182 151.001C427.136 151.234 427.054 151.456 426.937 151.666C426.611 152.226 426.226 152.844 425.782 153.521C425.339 154.197 424.884 154.851 424.417 155.481C424.091 155.924 423.659 156.414 423.122 156.951C422.586 157.487 422.014 157.954 421.407 158.351C420.801 158.724 420.217 158.911 419.657 158.911ZM428.426 158.911C427.75 158.911 427.236 158.642 426.886 158.106C426.723 157.849 426.606 157.546 426.536 157.196C426.466 156.846 426.431 156.484 426.431 156.111C426.431 155.737 426.455 155.364 426.501 154.991C426.548 154.594 426.606 154.209 426.676 153.836C426.793 153.229 426.921 152.681 427.061 152.191C427.225 151.677 427.388 151.187 427.551 150.721V150.686C427.365 151.036 427.131 151.421 426.851 151.841C426.571 152.237 426.373 152.529 426.256 152.716C426.093 152.972 425.965 153.101 425.871 153.101C425.778 153.101 425.731 152.996 425.731 152.786C425.731 152.319 425.871 151.806 426.151 151.246C426.338 150.872 426.595 150.394 426.921 149.811C427.248 149.204 427.586 148.551 427.936 147.851C428.286 147.151 428.59 146.474 428.846 145.821H426.501C426.385 145.821 426.361 145.727 426.431 145.541C426.501 145.354 426.606 145.179 426.746 145.016C426.886 144.829 426.991 144.736 427.061 144.736H429.721C429.978 144.129 430.27 143.476 430.596 142.776C430.946 142.076 431.331 141.422 431.751 140.816C432.195 140.186 432.673 139.672 433.186 139.276C433.7 138.879 434.248 138.681 434.831 138.681C435.088 138.681 435.403 138.681 435.776 138.681C436.173 138.681 436.418 138.669 436.511 138.646C436.021 138.972 435.45 139.626 434.796 140.606C434.143 141.562 433.431 142.939 432.661 144.736H436.196C436.266 144.736 436.243 144.829 436.126 145.016C436.01 145.179 435.858 145.354 435.671 145.541C435.508 145.727 435.345 145.821 435.181 145.821H432.171C431.868 146.591 431.53 147.431 431.156 148.341C430.806 149.251 430.48 150.149 430.176 151.036C429.896 151.899 429.686 152.692 429.546 153.416C429.453 153.859 429.406 154.267 429.406 154.641C429.406 155.527 429.686 155.971 430.246 155.971C430.62 155.971 431.063 155.784 431.576 155.411C432.09 155.037 432.603 154.524 433.116 153.871C433.583 153.264 434.026 152.611 434.446 151.911C434.89 151.211 435.263 150.569 435.566 149.986C435.66 149.822 435.741 149.741 435.811 149.741C435.951 149.741 436.021 149.927 436.021 150.301C436.021 150.487 435.986 150.709 435.916 150.966C435.87 151.199 435.776 151.432 435.636 151.666C435.31 152.226 434.925 152.844 434.481 153.521C434.038 154.174 433.583 154.827 433.116 155.481C432.79 155.901 432.358 156.379 431.821 156.916C431.308 157.452 430.748 157.919 430.141 158.316C429.558 158.712 428.986 158.911 428.426 158.911ZM442.462 158.211C441.389 158.771 440.257 159.051 439.067 159.051C438.064 159.051 437.131 158.806 436.267 158.316C435.404 157.826 434.821 157.044 434.517 155.971C434.377 155.481 434.307 154.967 434.307 154.431C434.307 153.544 434.459 152.634 434.762 151.701C435.089 150.744 435.509 149.869 436.022 149.076C436.816 147.839 437.819 146.812 439.032 145.996C440.246 145.179 441.587 144.771 443.057 144.771C444.154 144.771 445.006 145.051 445.612 145.611C446.219 146.171 446.522 146.824 446.522 147.571C446.522 148.457 446.219 149.239 445.612 149.916C445.029 150.569 444.259 151.071 443.302 151.421C442.836 151.584 442.334 151.712 441.797 151.806C441.284 151.876 440.794 151.911 440.327 151.911C439.371 151.911 438.636 151.782 438.122 151.526C437.679 152.669 437.457 153.719 437.457 154.676C437.457 155.539 437.656 156.251 438.052 156.811C438.449 157.347 439.079 157.616 439.942 157.616C440.666 157.616 441.377 157.417 442.077 157.021C442.801 156.624 443.466 156.134 444.072 155.551C444.702 154.967 445.227 154.407 445.647 153.871C445.974 153.474 446.254 153.101 446.487 152.751C446.721 152.401 446.966 152.004 447.222 151.561C447.479 151.094 447.782 150.522 448.132 149.846C448.226 149.682 448.307 149.601 448.377 149.601C448.517 149.601 448.587 149.787 448.587 150.161C448.587 150.371 448.552 150.604 448.482 150.861C448.436 151.094 448.342 151.339 448.202 151.596C447.876 152.179 447.479 152.821 447.012 153.521C446.569 154.197 446.114 154.851 445.647 155.481C445.227 156.041 444.749 156.554 444.212 157.021C443.676 157.487 443.092 157.884 442.462 158.211ZM439.277 150.756C439.394 150.826 439.522 150.872 439.662 150.896C439.802 150.919 439.942 150.931 440.082 150.931C440.549 150.931 441.016 150.826 441.482 150.616C441.949 150.382 442.346 150.149 442.672 149.916C443.209 149.542 443.664 149.099 444.037 148.586C444.411 148.072 444.621 147.489 444.667 146.836C444.691 146.556 444.621 146.322 444.457 146.136C444.317 145.926 444.061 145.821 443.687 145.821C443.501 145.821 443.267 145.856 442.987 145.926C442.614 146.019 442.241 146.194 441.867 146.451C441.494 146.707 441.132 147.011 440.782 147.361C440.666 147.477 440.456 147.711 440.152 148.061C439.872 148.387 439.604 148.761 439.347 149.181C439.091 149.577 438.962 149.927 438.962 150.231C438.962 150.487 439.067 150.662 439.277 150.756ZM448.706 158.911C448.053 158.911 447.563 158.677 447.236 158.211C446.909 157.721 446.746 157.067 446.746 156.251C446.746 156.134 446.746 156.017 446.746 155.901C446.746 155.784 446.758 155.667 446.781 155.551C446.898 154.664 447.096 153.661 447.376 152.541C447.679 151.421 448.029 150.242 448.426 149.006C448.659 148.306 448.951 147.431 449.301 146.381C449.674 145.307 450.106 144.164 450.596 142.951C451.086 141.714 451.623 140.489 452.206 139.276C452.813 138.062 453.478 136.966 454.201 135.986C454.924 134.982 455.683 134.177 456.476 133.571C457.293 132.964 458.156 132.661 459.066 132.661C459.813 132.661 460.326 132.847 460.606 133.221C460.886 133.571 461.026 133.991 461.026 134.481C461.026 134.994 460.933 135.519 460.746 136.056C460.559 136.569 460.373 137.001 460.186 137.351C459.766 138.191 459.218 139.136 458.541 140.186C457.864 141.236 457.153 142.216 456.406 143.126C455.963 143.709 455.414 144.362 454.761 145.086C454.108 145.809 453.489 146.474 452.906 147.081C452.346 147.687 451.938 148.107 451.681 148.341L451.121 149.951C450.958 150.394 450.794 150.919 450.631 151.526C450.491 152.132 450.363 152.739 450.246 153.346C450.153 153.929 450.071 154.442 450.001 154.886C449.978 154.979 449.966 155.072 449.966 155.166C449.966 155.259 449.966 155.341 449.966 155.411C449.966 156.111 450.234 156.461 450.771 156.461C451.098 156.461 451.506 156.309 451.996 156.006C452.463 155.726 452.906 155.364 453.326 154.921C453.769 154.454 454.084 154.104 454.271 153.871C454.738 153.264 455.181 152.622 455.601 151.946C456.021 151.246 456.383 150.604 456.686 150.021C456.803 149.834 456.884 149.741 456.931 149.741C457.071 149.741 457.141 149.939 457.141 150.336C457.141 150.522 457.106 150.744 457.036 151.001C456.989 151.234 456.908 151.456 456.791 151.666C456.464 152.226 456.079 152.844 455.636 153.521C455.193 154.197 454.738 154.851 454.271 155.481C453.921 155.947 453.431 156.449 452.801 156.986C452.171 157.522 451.494 157.977 450.771 158.351C450.048 158.724 449.359 158.911 448.706 158.911ZM452.381 146.346C453.548 144.969 454.726 143.499 455.916 141.936C457.129 140.349 458.133 138.739 458.926 137.106C458.973 136.989 459.078 136.756 459.241 136.406C459.404 136.056 459.556 135.671 459.696 135.251C459.836 134.807 459.906 134.434 459.906 134.131C459.906 133.734 459.754 133.536 459.451 133.536H459.206C458.903 133.536 458.541 133.746 458.121 134.166C457.724 134.586 457.316 135.146 456.896 135.846C456.359 136.732 455.834 137.759 455.321 138.926C454.808 140.069 454.306 141.282 453.816 142.566C453.326 143.849 452.848 145.109 452.381 146.346ZM457.354 158.911C456.7 158.911 456.21 158.677 455.884 158.211C455.557 157.721 455.394 157.067 455.394 156.251C455.394 156.134 455.394 156.017 455.394 155.901C455.394 155.784 455.405 155.667 455.429 155.551C455.545 154.664 455.744 153.661 456.024 152.541C456.327 151.421 456.677 150.242 457.074 149.006C457.307 148.306 457.599 147.431 457.949 146.381C458.322 145.307 458.754 144.164 459.244 142.951C459.734 141.714 460.27 140.489 460.854 139.276C461.46 138.062 462.125 136.966 462.849 135.986C463.572 134.982 464.33 134.177 465.124 133.571C465.94 132.964 466.804 132.661 467.714 132.661C468.46 132.661 468.974 132.847 469.254 133.221C469.534 133.571 469.674 133.991 469.674 134.481C469.674 134.994 469.58 135.519 469.394 136.056C469.207 136.569 469.02 137.001 468.834 137.351C468.414 138.191 467.865 139.136 467.189 140.186C466.512 141.236 465.8 142.216 465.054 143.126C464.61 143.709 464.062 144.362 463.409 145.086C462.755 145.809 462.137 146.474 461.554 147.081C460.994 147.687 460.585 148.107 460.329 148.341L459.769 149.951C459.605 150.394 459.442 150.919 459.279 151.526C459.139 152.132 459.01 152.739 458.894 153.346C458.8 153.929 458.719 154.442 458.649 154.886C458.625 154.979 458.614 155.072 458.614 155.166C458.614 155.259 458.614 155.341 458.614 155.411C458.614 156.111 458.882 156.461 459.419 156.461C459.745 156.461 460.154 156.309 460.644 156.006C461.11 155.726 461.554 155.364 461.974 154.921C462.417 154.454 462.732 154.104 462.919 153.871C463.385 153.264 463.829 152.622 464.249 151.946C464.669 151.246 465.03 150.604 465.334 150.021C465.45 149.834 465.532 149.741 465.579 149.741C465.719 149.741 465.789 149.939 465.789 150.336C465.789 150.522 465.754 150.744 465.684 151.001C465.637 151.234 465.555 151.456 465.439 151.666C465.112 152.226 464.727 152.844 464.284 153.521C463.84 154.197 463.385 154.851 462.919 155.481C462.569 155.947 462.079 156.449 461.449 156.986C460.819 157.522 460.142 157.977 459.419 158.351C458.695 158.724 458.007 158.911 457.354 158.911ZM461.029 146.346C462.195 144.969 463.374 143.499 464.564 141.936C465.777 140.349 466.78 138.739 467.574 137.106C467.62 136.989 467.725 136.756 467.889 136.406C468.052 136.056 468.204 135.671 468.344 135.251C468.484 134.807 468.554 134.434 468.554 134.131C468.554 133.734 468.402 133.536 468.099 133.536H467.854C467.55 133.536 467.189 133.746 466.769 134.166C466.372 134.586 465.964 135.146 465.544 135.846C465.007 136.732 464.482 137.759 463.969 138.926C463.455 140.069 462.954 141.282 462.464 142.566C461.974 143.849 461.495 145.109 461.029 146.346ZM471.811 141.901C471.204 141.691 470.901 141.294 470.901 140.711C470.901 140.174 471.111 139.626 471.531 139.066C471.974 138.482 472.453 138.109 472.966 137.946C473.083 137.899 473.176 137.876 473.246 137.876C473.339 137.876 473.433 137.876 473.526 137.876C473.923 137.876 474.249 137.992 474.506 138.226C474.763 138.459 474.891 138.727 474.891 139.031C474.891 139.451 474.669 139.801 474.226 140.081C473.876 140.034 473.538 140.116 473.211 140.326C472.884 140.536 472.593 140.792 472.336 141.096C472.103 141.399 471.928 141.667 471.811 141.901ZM465.791 158.911C465.488 158.911 465.196 158.841 464.916 158.701C464.636 158.584 464.403 158.339 464.216 157.966C463.959 157.406 463.831 156.741 463.831 155.971C463.831 155.131 463.959 154.197 464.216 153.171C464.473 152.121 464.811 151.047 465.231 149.951C465.394 149.554 465.604 149.064 465.861 148.481C466.118 147.897 466.421 147.314 466.771 146.731C467.121 146.147 467.518 145.669 467.961 145.296C468.428 144.899 468.929 144.701 469.466 144.701C469.723 144.701 470.084 144.712 470.551 144.736C471.018 144.759 471.356 144.759 471.566 144.736C471.426 144.829 471.263 145.016 471.076 145.296C470.889 145.576 470.714 145.867 470.551 146.171C470.388 146.451 470.259 146.672 470.166 146.836C469.559 148.049 468.988 149.251 468.451 150.441C467.914 151.631 467.506 152.774 467.226 153.871C467.179 154.057 467.144 154.244 467.121 154.431C467.098 154.617 467.086 154.792 467.086 154.956C467.086 155.632 467.308 155.971 467.751 155.971C467.938 155.971 468.136 155.924 468.346 155.831C468.579 155.714 468.848 155.539 469.151 155.306C469.688 154.886 470.154 154.407 470.551 153.871C471.018 153.264 471.461 152.622 471.881 151.946C472.301 151.246 472.663 150.604 472.966 150.021C473.083 149.834 473.164 149.741 473.211 149.741C473.351 149.741 473.421 149.939 473.421 150.336C473.421 150.522 473.386 150.744 473.316 151.001C473.269 151.234 473.188 151.456 473.071 151.666C472.744 152.226 472.359 152.844 471.916 153.521C471.473 154.197 471.018 154.851 470.551 155.481C470.224 155.924 469.793 156.414 469.256 156.951C468.719 157.487 468.148 157.954 467.541 158.351C466.934 158.724 466.351 158.911 465.791 158.911ZM472.329 166.926C471.559 166.926 470.847 166.762 470.194 166.436C469.541 166.132 469.214 165.561 469.214 164.721C469.214 164.254 469.354 163.776 469.634 163.286C469.914 162.819 470.311 162.516 470.824 162.376C470.871 162.352 470.929 162.341 470.999 162.341C471.069 162.341 471.127 162.341 471.174 162.341C471.804 162.341 472.224 162.586 472.434 163.076C472.387 163.099 472.317 163.169 472.224 163.286C472.131 163.426 472.061 163.531 472.014 163.601C471.804 164.021 471.699 164.394 471.699 164.721C471.699 165.094 471.816 165.386 472.049 165.596C472.306 165.806 472.632 165.911 473.029 165.911C473.356 165.911 473.706 165.829 474.079 165.666C474.476 165.526 474.884 165.292 475.304 164.966C476.051 164.359 476.657 163.624 477.124 162.761C477.614 161.921 478.034 161.092 478.384 160.276C478.991 158.829 479.562 157.301 480.099 155.691C480.659 154.081 481.207 152.529 481.744 151.036C481.301 151.852 480.822 152.669 480.309 153.486C479.819 154.302 479.317 155.014 478.804 155.621C478.057 156.531 477.264 157.289 476.424 157.896C475.607 158.502 474.791 158.806 473.974 158.806C473.321 158.806 472.761 158.572 472.294 158.106C471.827 157.616 471.594 156.776 471.594 155.586C471.594 154.372 471.804 153.124 472.224 151.841C472.644 150.557 473.227 149.367 473.974 148.271C474.744 147.151 475.642 146.252 476.669 145.576C477.719 144.899 478.862 144.561 480.099 144.561C480.496 144.561 480.927 144.619 481.394 144.736C481.861 144.852 482.281 145.062 482.654 145.366C483.051 145.669 483.319 146.101 483.459 146.661C483.786 145.961 484.182 145.459 484.649 145.156C485.116 144.852 485.921 144.701 487.064 144.701H488.464C488.021 144.981 487.577 145.506 487.134 146.276C486.691 147.022 486.271 147.909 485.874 148.936C485.571 149.682 485.221 150.557 484.824 151.561C484.451 152.564 484.101 153.521 483.774 154.431C483.471 155.271 483.121 156.204 482.724 157.231C482.351 158.257 481.919 159.272 481.429 160.276C480.962 161.279 480.426 162.166 479.819 162.936C478.886 164.126 477.742 165.082 476.389 165.806C475.059 166.552 473.706 166.926 472.329 166.926ZM475.514 155.866C475.584 155.889 475.689 155.901 475.829 155.901C476.272 155.901 476.751 155.714 477.264 155.341C477.777 154.967 478.291 154.489 478.804 153.906C479.317 153.299 479.772 152.692 480.169 152.086C481.149 150.569 481.884 149.402 482.374 148.586C482.887 147.769 483.191 147.256 483.284 147.046C483.307 147.046 483.319 147.022 483.319 146.976C483.202 146.579 482.992 146.299 482.689 146.136C482.409 145.949 482.082 145.856 481.709 145.856C481.196 145.856 480.647 145.996 480.064 146.276C479.481 146.556 478.991 146.894 478.594 147.291C477.987 147.897 477.404 148.679 476.844 149.636C476.307 150.592 475.864 151.537 475.514 152.471C475.164 153.404 474.989 154.186 474.989 154.816C474.989 155.399 475.164 155.749 475.514 155.866ZM495.133 158.211C494.06 158.771 492.928 159.051 491.738 159.051C490.735 159.051 489.801 158.806 488.938 158.316C488.075 157.826 487.491 157.044 487.188 155.971C487.048 155.481 486.978 154.967 486.978 154.431C486.978 153.544 487.13 152.634 487.433 151.701C487.76 150.744 488.18 149.869 488.693 149.076C489.486 147.839 490.49 146.812 491.703 145.996C492.916 145.179 494.258 144.771 495.728 144.771C496.825 144.771 497.676 145.051 498.283 145.611C498.89 146.171 499.193 146.824 499.193 147.571C499.193 148.457 498.89 149.239 498.283 149.916C497.7 150.569 496.93 151.071 495.973 151.421C495.506 151.584 495.005 151.712 494.468 151.806C493.955 151.876 493.465 151.911 492.998 151.911C492.041 151.911 491.306 151.782 490.793 151.526C490.35 152.669 490.128 153.719 490.128 154.676C490.128 155.539 490.326 156.251 490.723 156.811C491.12 157.347 491.75 157.616 492.613 157.616C493.336 157.616 494.048 157.417 494.748 157.021C495.471 156.624 496.136 156.134 496.743 155.551C497.373 154.967 497.898 154.407 498.318 153.871C498.645 153.474 498.925 153.101 499.158 152.751C499.391 152.401 499.636 152.004 499.893 151.561C500.15 151.094 500.453 150.522 500.803 149.846C500.896 149.682 500.978 149.601 501.048 149.601C501.188 149.601 501.258 149.787 501.258 150.161C501.258 150.371 501.223 150.604 501.153 150.861C501.106 151.094 501.013 151.339 500.873 151.596C500.546 152.179 500.15 152.821 499.683 153.521C499.24 154.197 498.785 154.851 498.318 155.481C497.898 156.041 497.42 156.554 496.883 157.021C496.346 157.487 495.763 157.884 495.133 158.211ZM491.948 150.756C492.065 150.826 492.193 150.872 492.333 150.896C492.473 150.919 492.613 150.931 492.753 150.931C493.22 150.931 493.686 150.826 494.153 150.616C494.62 150.382 495.016 150.149 495.343 149.916C495.88 149.542 496.335 149.099 496.708 148.586C497.081 148.072 497.291 147.489 497.338 146.836C497.361 146.556 497.291 146.322 497.128 146.136C496.988 145.926 496.731 145.821 496.358 145.821C496.171 145.821 495.938 145.856 495.658 145.926C495.285 146.019 494.911 146.194 494.538 146.451C494.165 146.707 493.803 147.011 493.453 147.361C493.336 147.477 493.126 147.711 492.823 148.061C492.543 148.387 492.275 148.761 492.018 149.181C491.761 149.577 491.633 149.927 491.633 150.231C491.633 150.487 491.738 150.662 491.948 150.756ZM508.832 158.911C508.039 158.911 507.49 158.677 507.187 158.211C506.907 157.721 506.767 157.161 506.767 156.531C506.767 155.761 506.919 154.839 507.222 153.766C507.525 152.669 507.875 151.572 508.272 150.476C508.692 149.356 509.065 148.364 509.392 147.501C509.485 147.291 509.532 147.069 509.532 146.836C509.532 146.579 509.45 146.392 509.287 146.276C509.124 146.159 508.914 146.101 508.657 146.101C508.284 146.101 507.864 146.217 507.397 146.451C506.674 146.824 505.985 147.419 505.332 148.236C504.679 149.052 504.154 149.904 503.757 150.791C503.314 151.794 502.917 152.797 502.567 153.801C502.217 154.804 501.937 155.621 501.727 156.251C501.587 156.647 501.459 157.056 501.342 157.476C501.225 157.896 501.109 158.304 500.992 158.701H497.597C497.597 158.701 497.679 158.409 497.842 157.826C497.982 157.242 498.169 156.659 498.402 156.076C498.799 155.049 499.195 154.022 499.592 152.996C500.012 151.969 500.374 151.059 500.677 150.266C500.77 150.032 500.91 149.601 501.097 148.971C501.307 148.317 501.494 147.641 501.657 146.941C501.844 146.241 501.937 145.669 501.937 145.226C501.937 144.969 501.902 144.794 501.832 144.701C502.042 144.701 502.275 144.701 502.532 144.701C502.812 144.677 503.069 144.666 503.302 144.666C503.629 144.666 503.932 144.677 504.212 144.701C504.515 144.724 504.714 144.782 504.807 144.876C505.087 145.086 505.227 145.389 505.227 145.786C505.227 146.066 505.169 146.346 505.052 146.626C504.959 146.906 504.889 147.139 504.842 147.326C505.169 147.022 505.507 146.731 505.857 146.451C506.207 146.171 506.744 145.809 507.467 145.366C507.887 145.109 508.412 144.899 509.042 144.736C509.672 144.572 510.244 144.491 510.757 144.491C512.087 144.491 512.752 145.109 512.752 146.346C512.752 146.556 512.729 146.789 512.682 147.046C512.659 147.302 512.589 147.582 512.472 147.886C512.355 148.259 512.169 148.772 511.912 149.426C511.655 150.079 511.387 150.779 511.107 151.526C510.85 152.249 510.629 152.937 510.442 153.591C510.255 154.244 510.162 154.769 510.162 155.166C510.162 155.726 510.372 156.006 510.792 156.006C511.165 156.006 511.632 155.772 512.192 155.306C512.729 154.862 513.195 154.384 513.592 153.871C514.082 153.264 514.525 152.622 514.922 151.946C515.342 151.246 515.704 150.604 516.007 150.021C516.124 149.834 516.205 149.741 516.252 149.741C516.392 149.741 516.462 149.939 516.462 150.336C516.462 150.522 516.427 150.744 516.357 151.001C516.31 151.234 516.229 151.456 516.112 151.666C515.785 152.226 515.4 152.844 514.957 153.521C514.514 154.197 514.059 154.851 513.592 155.481C513.265 155.924 512.834 156.414 512.297 156.951C511.76 157.487 511.189 157.954 510.582 158.351C509.975 158.724 509.392 158.911 508.832 158.911ZM519.316 159.051C518.22 159.051 517.333 158.852 516.656 158.456C515.98 158.036 515.49 157.487 515.186 156.811C514.906 156.111 514.766 155.364 514.766 154.571C514.766 153.777 514.883 152.972 515.116 152.156C515.35 151.339 515.665 150.569 516.061 149.846C516.878 148.376 517.881 147.162 519.071 146.206C520.285 145.249 521.766 144.771 523.516 144.771C524.613 144.771 525.465 145.051 526.071 145.611C526.678 146.171 526.981 146.824 526.981 147.571C526.981 148.271 526.771 148.912 526.351 149.496C525.955 150.079 525.418 150.371 524.741 150.371C524.368 150.371 524.041 150.266 523.761 150.056C523.481 149.846 523.341 149.519 523.341 149.076C523.341 149.006 523.341 148.936 523.341 148.866C523.365 148.772 523.388 148.679 523.411 148.586C523.551 148.562 523.75 148.527 524.006 148.481C524.286 148.411 524.508 148.247 524.671 147.991C524.975 147.571 525.126 147.151 525.126 146.731C525.126 146.474 525.045 146.264 524.881 146.101C524.741 145.914 524.496 145.821 524.146 145.821C523.516 145.821 522.875 146.054 522.221 146.521C521.568 146.964 520.95 147.559 520.366 148.306C519.806 149.052 519.316 149.869 518.896 150.756C518.243 152.179 517.916 153.486 517.916 154.676C517.916 155.539 518.115 156.251 518.511 156.811C518.908 157.347 519.538 157.616 520.401 157.616C521.498 157.616 522.525 157.242 523.481 156.496C524.461 155.726 525.336 154.839 526.106 153.836C526.62 153.182 527.075 152.517 527.471 151.841C527.891 151.164 528.241 150.546 528.521 149.986C528.615 149.822 528.696 149.741 528.766 149.741C528.906 149.741 528.976 149.939 528.976 150.336C528.976 150.522 528.941 150.744 528.871 151.001C528.825 151.234 528.743 151.456 528.626 151.666C528.23 152.319 527.821 152.972 527.401 153.626C527.005 154.279 526.573 154.897 526.106 155.481C525.313 156.507 524.38 157.359 523.306 158.036C522.233 158.712 520.903 159.051 519.316 159.051ZM535.465 158.211C534.392 158.771 533.26 159.051 532.07 159.051C531.067 159.051 530.133 158.806 529.27 158.316C528.407 157.826 527.823 157.044 527.52 155.971C527.38 155.481 527.31 154.967 527.31 154.431C527.31 153.544 527.462 152.634 527.765 151.701C528.092 150.744 528.512 149.869 529.025 149.076C529.818 147.839 530.822 146.812 532.035 145.996C533.248 145.179 534.59 144.771 536.06 144.771C537.157 144.771 538.008 145.051 538.615 145.611C539.222 146.171 539.525 146.824 539.525 147.571C539.525 148.457 539.222 149.239 538.615 149.916C538.032 150.569 537.262 151.071 536.305 151.421C535.838 151.584 535.337 151.712 534.8 151.806C534.287 151.876 533.797 151.911 533.33 151.911C532.373 151.911 531.638 151.782 531.125 151.526C530.682 152.669 530.46 153.719 530.46 154.676C530.46 155.539 530.658 156.251 531.055 156.811C531.452 157.347 532.082 157.616 532.945 157.616C533.668 157.616 534.38 157.417 535.08 157.021C535.803 156.624 536.468 156.134 537.075 155.551C537.705 154.967 538.23 154.407 538.65 153.871C538.977 153.474 539.257 153.101 539.49 152.751C539.723 152.401 539.968 152.004 540.225 151.561C540.482 151.094 540.785 150.522 541.135 149.846C541.228 149.682 541.31 149.601 541.38 149.601C541.52 149.601 541.59 149.787 541.59 150.161C541.59 150.371 541.555 150.604 541.485 150.861C541.438 151.094 541.345 151.339 541.205 151.596C540.878 152.179 540.482 152.821 540.015 153.521C539.572 154.197 539.117 154.851 538.65 155.481C538.23 156.041 537.752 156.554 537.215 157.021C536.678 157.487 536.095 157.884 535.465 158.211ZM532.28 150.756C532.397 150.826 532.525 150.872 532.665 150.896C532.805 150.919 532.945 150.931 533.085 150.931C533.552 150.931 534.018 150.826 534.485 150.616C534.952 150.382 535.348 150.149 535.675 149.916C536.212 149.542 536.667 149.099 537.04 148.586C537.413 148.072 537.623 147.489 537.67 146.836C537.693 146.556 537.623 146.322 537.46 146.136C537.32 145.926 537.063 145.821 536.69 145.821C536.503 145.821 536.27 145.856 535.99 145.926C535.617 146.019 535.243 146.194 534.87 146.451C534.497 146.707 534.135 147.011 533.785 147.361C533.668 147.477 533.458 147.711 533.155 148.061C532.875 148.387 532.607 148.761 532.35 149.181C532.093 149.577 531.965 149.927 531.965 150.231C531.965 150.487 532.07 150.662 532.28 150.756Z" fill="url(#paint0_linear_12_7)"/>
<path d="M217.375 110.085C215.165 110.085 213.375 108.294 213.375 106.085V20.9944C213.375 18.7853 215.165 16.9944 217.375 16.9944H274.284C276.493 16.9944 278.284 18.7853 278.284 20.9944V31.2671C278.284 33.4763 276.493 35.2671 274.284 35.2671H235.875V54.358H270.965C273.175 54.358 274.965 56.1489 274.965 58.358V68.6762C274.965 70.8854 273.175 72.6762 270.965 72.6762H235.875V91.8126H274.284C276.493 91.8126 278.284 93.6035 278.284 95.8126V106.085C278.284 108.294 276.493 110.085 274.284 110.085H217.375Z" fill="url(#paint1_linear_12_7)"/>
<path d="M310.55 16.9944C312.309 16.9944 313.862 18.1438 314.376 19.8263L334.329 85.1762H335.102L355.055 19.8263C355.569 18.1438 357.122 16.9944 358.881 16.9944H375.531C378.267 16.9944 380.196 19.6804 379.321 22.2732L350.611 107.364C350.062 108.99 348.537 110.085 346.821 110.085H322.61C320.894 110.085 319.369 108.99 318.82 107.364L290.11 22.2732C289.235 19.6804 291.164 16.9944 293.9 16.9944H310.55Z" fill="url(#paint2_linear_12_7)"/>
<path d="M473.488 63.5399C473.488 73.7823 471.518 82.4641 467.579 89.5853C463.64 96.7065 458.306 102.116 451.579 105.813C444.882 109.51 437.367 111.358 429.034 111.358C420.67 111.358 413.14 109.494 406.443 105.767C399.746 102.04 394.428 96.6308 390.488 89.5399C386.579 82.4187 384.625 73.752 384.625 63.5399C384.625 53.2974 386.579 44.6156 390.488 37.4944C394.428 30.3732 399.746 24.9641 406.443 21.2671C413.14 17.5702 420.67 15.7217 429.034 15.7217C437.367 15.7217 444.882 17.5702 451.579 21.2671C458.306 24.9641 463.64 30.3732 467.579 37.4944C471.518 44.6156 473.488 53.2974 473.488 63.5399ZM450.488 63.5399C450.488 57.4793 449.625 52.358 447.897 48.1762C446.2 43.9944 443.746 40.8277 440.534 38.6762C437.352 36.5247 433.518 35.449 429.034 35.449C424.579 35.449 420.746 36.5247 417.534 38.6762C414.321 40.8277 411.852 43.9944 410.125 48.1762C408.428 52.358 407.579 57.4793 407.579 63.5399C407.579 69.6005 408.428 74.7217 410.125 78.9035C411.852 83.0853 414.321 86.252 417.534 88.4035C420.746 90.555 424.579 91.6308 429.034 91.6308C433.518 91.6308 437.352 90.555 440.534 88.4035C443.746 86.252 446.2 83.0853 447.897 78.9035C449.625 74.7217 450.488 69.6005 450.488 63.5399Z" fill="url(#paint3_linear_12_7)"/>
<path d="M527.06 83.0421C525.069 80.407 526.948 76.6308 530.251 76.6308H540.397L548.125 86.4944L558.261 98.1308L568.565 110.839C570.686 113.453 568.825 117.358 565.458 117.358H553.488L542.579 104.313L536.125 95.0399L527.06 83.0421ZM574.488 63.5399C574.488 73.7823 572.518 82.4641 568.579 89.5853C564.64 96.7065 559.306 102.116 552.579 105.813C545.882 109.51 538.367 111.358 530.034 111.358C521.67 111.358 514.14 109.494 507.443 105.767C500.746 102.04 495.428 96.6308 491.488 89.5399C487.579 82.4187 485.625 73.752 485.625 63.5399C485.625 53.2974 487.579 44.6156 491.488 37.4944C495.428 30.3732 500.746 24.9641 507.443 21.2671C514.14 17.5702 521.67 15.7217 530.034 15.7217C538.367 15.7217 545.882 17.5702 552.579 21.2671C559.306 24.9641 564.64 30.3732 568.579 37.4944C572.518 44.6156 574.488 53.2974 574.488 63.5399ZM551.488 63.5399C551.488 57.4793 550.625 52.358 548.897 48.1762C547.2 43.9944 544.746 40.8277 541.534 38.6762C538.352 36.5247 534.518 35.449 530.034 35.449C525.579 35.449 521.746 36.5247 518.534 38.6762C515.321 40.8277 512.852 43.9944 511.125 48.1762C509.428 52.358 508.579 57.4793 508.579 63.5399C508.579 69.6005 509.428 74.7217 511.125 78.9035C512.852 83.0853 515.321 86.252 518.534 88.4035C521.746 90.555 525.579 91.6308 530.034 91.6308C534.518 91.6308 538.352 90.555 541.534 88.4035C544.746 86.252 547.2 83.0853 548.897 78.9035C550.625 74.7217 551.488 69.6005 551.488 63.5399Z" fill="url(#paint4_linear_12_7)"/>
<path d="M616.437 73.2998C614.228 73.2998 612.437 71.5089 612.437 69.2998V19.2998C612.437 17.0907 614.228 15.2998 616.437 15.2998H624.579C626.789 15.2998 628.579 17.0907 628.579 19.2998V69.2998C628.579 71.5089 626.789 73.2998 624.579 73.2998H616.437ZM595.488 52.391C593.279 52.391 591.488 50.6001 591.488 48.391V40.2086C591.488 37.9995 593.279 36.2086 595.488 36.2086H645.488C647.697 36.2086 649.488 37.9995 649.488 40.2086V48.391C649.488 50.6001 647.697 52.391 645.488 52.391H595.488Z" fill="url(#paint5_linear_12_7)"/>
<defs>
<linearGradient id="paint0_linear_12_7" x1="213" y1="147.701" x2="539" y2="147.701" gradientUnits="userSpaceOnUse">
<stop stop-color="#06B6D4"/>
<stop offset="1" stop-color="#3B82F6"/>
</linearGradient>
<linearGradient id="paint1_linear_12_7" x1="213.375" y1="66.3289" x2="649.488" y2="66.3289" gradientUnits="userSpaceOnUse">
<stop stop-color="#06B6D4"/>
<stop offset="0.281136" stop-color="#0EA5E9"/>
<stop offset="0.437827" stop-color="#3B82F6"/>
<stop offset="0.831418" stop-color="#F59E0B"/>
</linearGradient>
<linearGradient id="paint2_linear_12_7" x1="213.375" y1="66.3289" x2="649.488" y2="66.3289" gradientUnits="userSpaceOnUse">
<stop stop-color="#06B6D4"/>
<stop offset="0.281136" stop-color="#0EA5E9"/>
<stop offset="0.437827" stop-color="#3B82F6"/>
<stop offset="0.831418" stop-color="#F59E0B"/>
</linearGradient>
<linearGradient id="paint3_linear_12_7" x1="213.375" y1="66.3289" x2="649.488" y2="66.3289" gradientUnits="userSpaceOnUse">
<stop stop-color="#06B6D4"/>
<stop offset="0.281136" stop-color="#0EA5E9"/>
<stop offset="0.437827" stop-color="#3B82F6"/>
<stop offset="0.831418" stop-color="#F59E0B"/>
</linearGradient>
<linearGradient id="paint4_linear_12_7" x1="213.375" y1="66.3289" x2="649.488" y2="66.3289" gradientUnits="userSpaceOnUse">
<stop stop-color="#06B6D4"/>
<stop offset="0.281136" stop-color="#0EA5E9"/>
<stop offset="0.437827" stop-color="#3B82F6"/>
<stop offset="0.831418" stop-color="#F59E0B"/>
</linearGradient>
<linearGradient id="paint5_linear_12_7" x1="213.375" y1="66.3289" x2="649.488" y2="66.3289" gradientUnits="userSpaceOnUse">
<stop stop-color="#06B6D4"/>
<stop offset="0.281136" stop-color="#0EA5E9"/>
<stop offset="0.437827" stop-color="#3B82F6"/>
<stop offset="0.831418" stop-color="#F59E0B"/>
</linearGradient>
</defs>
</svg>
