<svg width="34" height="35" viewBox="0 0 34 35" fill="none" xmlns="http://www.w3.org/2000/svg">
<path opacity="0.3" d="M32.6167 15.3528L30.3037 13.0054C30.1425 12.8473 30.0151 12.658 29.9292 12.4491C29.8434 12.2401 29.801 12.0159 29.8045 11.79V8.46036C29.8024 8.00419 29.7101 7.55295 29.5331 7.13256C29.3562 6.71217 29.0979 6.3309 28.7732 6.01067C28.4485 5.69044 28.0637 5.43755 27.641 5.26653C27.2183 5.09552 26.766 5.00974 26.3101 5.01413H22.9821C22.7564 5.01769 22.5322 4.97524 22.3234 4.88937C22.1146 4.80351 21.9254 4.67602 21.7674 4.51468L19.4378 2.16725C18.7888 1.51863 17.909 1.1543 16.9917 1.1543C16.0744 1.1543 15.1946 1.51863 14.5456 2.16725L12.1993 4.48138C12.0413 4.64273 11.8521 4.77021 11.6433 4.85608C11.4345 4.94194 11.2104 4.98439 10.9846 4.98083H7.65658C7.20065 4.98301 6.74964 5.07528 6.32945 5.25237C5.90927 5.42945 5.5282 5.68785 5.20813 6.01273C4.88806 6.3376 4.63529 6.72254 4.46436 7.14544C4.29343 7.56834 4.2077 8.02086 4.21209 8.47701V11.8067C4.21564 12.0326 4.17321 12.2568 4.08739 12.4657C4.00157 12.6747 3.87415 12.8639 3.71288 13.022L1.36663 15.3528C0.718337 16.0021 0.354187 16.8824 0.354187 17.8001C0.354187 18.7179 0.718337 19.5981 1.36663 20.2474L3.6796 22.5949C3.84087 22.753 3.96829 22.9423 4.05411 23.1512C4.13993 23.3601 4.18236 23.5843 4.17881 23.8102V27.1399C4.18098 27.5961 4.27321 28.0473 4.4502 28.4677C4.6272 28.8881 4.88547 29.2694 5.21018 29.5896C5.53489 29.9098 5.91964 30.1627 6.34233 30.3337C6.76501 30.5047 7.21731 30.5905 7.67323 30.5861H11.0012C11.227 30.5826 11.4511 30.625 11.6599 30.7109C11.8688 30.7967 12.058 30.9242 12.216 31.0856L14.5622 33.433C15.2112 34.0816 16.091 34.446 17.0083 34.446C17.9256 34.446 18.8054 34.0816 19.4544 33.433L21.784 31.1189C21.942 30.9575 22.1312 30.83 22.3401 30.7442C22.5489 30.6583 22.773 30.6159 22.9987 30.6194H26.3268C27.2447 30.6194 28.1251 30.2546 28.7742 29.6052C29.4233 28.9558 29.7879 28.075 29.7879 27.1566V23.8269C29.7844 23.601 29.8268 23.3768 29.9126 23.1678C29.9984 22.9589 30.1258 22.7696 30.2871 22.6115L32.6334 20.2641C32.9558 19.9412 33.2112 19.5577 33.385 19.1357C33.5587 18.7136 33.6474 18.2614 33.6458 17.805C33.6443 17.3486 33.5526 16.8969 33.376 16.4761C33.1993 16.0553 32.9413 15.6735 32.6167 15.3528Z" fill="#1B84FF"/>
<path d="M16.992 22.4932C18.1652 22.4932 19.116 23.4444 19.116 24.6182C19.116 25.7919 18.1652 26.7432 16.992 26.7432C15.8188 26.7431 14.868 25.7919 14.868 24.6182C14.868 23.4444 15.8188 22.4932 16.992 22.4932ZM16.992 8.85742C17.4426 8.85752 17.8746 9.03669 18.1932 9.35547C18.5118 9.67432 18.6912 10.1067 18.6912 10.5576V18.4805C18.6912 18.9314 18.5118 19.3638 18.1932 19.6826C17.8746 20.0014 17.4426 20.1806 16.992 20.1807C16.5413 20.1807 16.1086 20.0015 15.7899 19.6826C15.4713 19.3638 15.2918 18.9313 15.2918 18.4805V10.5576C15.2918 10.1068 15.4713 9.67431 15.7899 9.35547C16.1086 9.03661 16.5413 8.85742 16.992 8.85742Z" fill="#1B84FF"/>
</svg>
