<svg width="77" height="104" viewBox="0 0 77 104" fill="none" xmlns="http://www.w3.org/2000/svg">
<path d="M31.7114 55.8619C32.7034 52.4468 33.8863 49.585 35.279 47.2384C36.6718 44.8917 38.5033 42.2017 40.7545 39.1682C42.3953 36.9169 43.6926 35.0472 44.6275 33.5973C45.5623 32.1473 46.3446 30.5256 46.9742 28.7322C47.5847 26.9389 47.8899 25.031 47.8899 22.9705V22.9133C47.8899 19.3456 46.9741 16.5792 45.1426 14.5951C43.3111 12.63 40.7546 11.6379 37.4731 11.6379C34.1534 11.6379 31.5778 12.8589 29.7463 15.301C27.9147 17.743 26.9799 21.1962 26.9417 25.6797V25.7369H14.1973V25.6797C14.369 20.2614 15.3801 15.6253 17.2689 11.7905C19.1577 7.95573 21.8096 5.01763 25.2056 3.01439C28.6206 1.01115 32.6653 0 37.3395 0C42.2236 0 46.4209 0.896681 49.8932 2.70914C53.3845 4.5216 56.0365 7.13537 57.868 10.5695C59.6995 14.0036 60.6153 18.1246 60.6153 22.9705V23.0278C60.6153 25.9468 60.2337 28.5605 59.4706 30.9072C58.7074 33.2538 57.7917 35.2762 56.7042 37.0123C55.6167 38.7294 54.1286 40.828 52.2398 43.2892C50.1793 45.922 48.5195 48.2496 47.2603 50.2719C45.9821 52.3133 44.9137 54.7553 44.0551 57.598C43.1966 60.4598 42.7578 63.7413 42.7578 67.4807H30.2041C30.2423 63.1499 30.7193 59.2769 31.7114 55.8619ZM29.918 77.3061H43.1012V90.4894H29.918V77.3061Z" fill="#056EE9"/>
<path d="M75.7829 87.2266C74.0658 82.5332 75.0198 80.5491 74.352 75.665C73.627 70.4184 71.9863 65.0383 69.8113 60.3068C69.0673 58.6851 67.789 56.7391 66.568 55.3464C61.3214 49.3939 56.4945 44.0519 48.825 40.5987V40.6368C48.7296 40.1026 48.6342 39.5684 48.5197 39.0533C49.2065 38.3856 50.046 37.7941 50.8855 37.2218C52.2973 36.2488 53.69 35.2758 55.1018 34.3219C55.4452 34.0929 55.7886 33.8449 55.9794 33.5396C56.1702 33.2344 56.1893 32.8337 55.9031 32.6239C55.6932 32.4712 55.3689 32.4522 55.0636 32.414C54.6057 32.3759 54.1288 32.3377 53.6709 32.4331C53.213 32.5094 52.7742 32.7002 52.3736 32.91C50.7137 33.7113 49.2256 34.6653 47.7756 35.6764C47.3178 33.7304 46.8026 31.689 46.2684 29.247C46.2684 29.2088 46.2684 29.1897 46.2875 29.1516C47.2605 29.3996 48.348 29.247 49.1493 28.6365C50.4275 27.6825 50.8473 25.7365 50.0651 24.3438C49.4355 23.2182 48.0809 22.5504 46.8026 22.6649C46.9362 16.388 45.5816 12.6677 41.9376 12.8394C40.2969 12.8013 38.6561 13.5263 37.3015 14.4802C33.2378 17.342 29.2504 20.3182 25.6446 22.8366C25.6446 22.8366 29.8609 25.3549 31.9405 26.576C31.9405 26.576 30.1662 33.1581 28.7353 37.6606C28.678 37.6606 28.6399 37.6415 28.5827 37.6415C27.7432 37.6033 26.8084 38.0231 26.5794 38.7099C26.4077 39.2441 26.6748 39.8355 27.0755 40.2743C27.1899 40.4079 27.3235 40.5224 27.457 40.6368C19.425 46.5703 14.0067 49.6228 9.31337 57.445C7.59631 60.2877 3.89507 65.8205 2.82668 68.8921C1.52934 72.6506 0.11753 76.2755 2.06354 80.3392C1.41487 80.4346 0.422772 80.778 0.308301 81.3504C0.174751 81.98 0.365546 82.6286 0.556331 83.2391C0.766195 83.945 1.05237 84.7273 1.79643 85.0707C0.995137 85.5095 0.537252 86.368 0.651723 87.1884C0.766195 88.0088 1.4721 88.7338 2.36879 88.9818C1.33855 89.5923 1.54841 91.0804 2.46418 91.8054C3.39903 92.5304 4.73453 92.683 5.97463 92.7784C7.21474 92.8738 8.53116 92.931 9.58048 93.5415L9.71402 93.3699C9.7331 94.3047 10.5344 95.0869 11.412 95.6402C15.6856 98.3684 22.8591 97.5671 27.1899 100.219L27.6287 100.696C29.0215 102.318 31.0056 103.825 33.3332 103.806C34.9549 103.787 36.443 103.043 37.7785 102.241C39.9725 100.906 41.9949 99.2842 43.5402 97.3954C47.7947 98.5974 51.3624 96.804 55.7695 97.8533C62.8286 99.5322 72.8639 97.4526 74.2948 94.8961C75.6875 92.5113 76.6987 89.7258 75.7829 87.2266Z" fill="#363843"/>
<path d="M15.6472 17.4947C15.838 18.8111 15.8762 20.1657 15.9525 21.5012C15.9715 21.8637 15.3992 21.8637 15.3801 21.5012C15.3038 20.2611 15.2657 19.0019 15.113 17.7809C14.9986 16.846 14.7505 15.8348 14.14 15.0908C13.6249 14.4803 12.8427 14.0224 12.0223 14.0033C11.221 14.0033 10.4579 14.5184 10.3434 15.3388C10.2862 15.7204 10.4197 16.121 10.744 16.35C11.0302 16.5598 11.4309 16.6552 11.7552 16.4644C12.0795 16.2927 12.3657 16.7888 12.0414 16.9605C11.0111 17.5138 9.75195 16.6361 9.75195 15.5105C9.75195 14.4612 10.6105 13.5836 11.6407 13.431C12.6137 13.2974 13.6249 13.7362 14.3117 14.404C15.1321 15.2243 15.4946 16.3881 15.6472 17.4947ZM19.0241 25.5458C19.0051 25.5458 19.0241 25.5458 19.0241 25.5458C19.0051 25.5458 19.0051 25.5458 19.0241 25.5458C19.0051 25.5267 19.005 25.5267 19.005 25.5267C19.005 25.5458 19.0051 25.5458 19.0241 25.5458ZM18.9478 25.7938C18.9478 25.7747 18.9478 25.7747 18.9478 25.7938V25.7938ZM19.5965 25.603C19.5774 25.9655 19.3485 26.2326 19.0623 26.4425C19.005 26.4807 18.9478 26.5188 18.8906 26.557C18.8143 26.6142 18.7189 26.6333 18.6235 26.6142C18.5853 26.5951 18.5472 26.576 18.509 26.557C18.3754 26.4616 18.2801 26.328 18.2228 26.1563C18.1465 25.9274 18.1847 25.6221 18.3564 25.4313C18.3373 25.3741 18.3373 25.3169 18.3564 25.2596C18.4136 25.0879 18.5471 24.9544 18.7189 24.8971C18.8715 24.859 19.0241 24.8781 19.1577 24.9353C19.4057 25.0688 19.6156 25.3169 19.5965 25.603ZM18.757 26.0228C18.757 26.0037 18.757 26.0228 18.757 26.0228C18.757 26.0037 18.757 26.0037 18.757 26.0228ZM18.7761 25.7938C18.7952 25.7747 18.8143 25.7557 18.7761 25.7938V25.7938ZM18.8906 25.4123C18.8906 25.4313 18.8906 25.4313 18.8906 25.4123C18.8715 25.4313 18.8715 25.4313 18.8906 25.4123C18.8906 25.4313 18.8906 25.4313 18.8906 25.4123ZM18.986 25.7366C18.986 25.7175 19.005 25.6984 19.005 25.6984C19.005 25.6794 19.0241 25.6603 19.0241 25.6221C19.0241 25.603 19.0241 25.584 19.0241 25.5649L19.005 25.5458V25.5649C18.986 25.5458 18.986 25.5458 18.9669 25.5267C18.9669 25.5267 18.9669 25.5267 18.9478 25.5267C18.9287 25.5267 18.9096 25.5076 18.9096 25.5076H18.8906C18.8906 25.5076 18.8906 25.5076 18.8715 25.5076C18.8715 25.5458 18.8906 25.5649 18.8906 25.603C18.8906 25.6603 18.8524 25.7557 18.8142 25.8129C18.7952 25.832 18.7761 25.8511 18.757 25.8511L18.738 25.8701V25.8892C18.738 25.9083 18.738 25.9083 18.738 25.9274C18.738 25.9465 18.738 25.9846 18.738 26.0037C18.738 26.0037 18.738 26.0037 18.738 26.0228C18.757 26.0037 18.8143 25.9655 18.738 26.0228C18.757 26.0037 18.757 26.0037 18.7761 25.9846C18.8143 25.9655 18.8333 25.9274 18.8715 25.9083C18.8906 25.8892 18.8906 25.8892 18.9096 25.8701L18.9287 25.8511C18.9287 25.8511 18.9287 25.8701 18.9096 25.8701C18.9478 25.7938 18.9669 25.7557 18.986 25.7366ZM74.9814 34.4173C74.6189 34.3219 74.4663 34.8752 74.8288 34.9706C75.7827 35.2186 76.1833 36.3252 75.9162 37.2028C75.611 38.2139 74.638 38.9389 73.665 39.2442C72.6157 39.5685 71.4519 39.4731 70.4789 38.9389C69.5631 38.4429 68.6855 37.6607 67.5789 37.6225C66.6441 37.5843 65.5757 38.1376 65.5185 39.1679C65.4994 39.5303 66.0717 39.5303 66.0908 39.1679C66.148 38.2521 67.3882 38.0804 68.075 38.2903C68.6473 38.462 69.1434 38.8245 69.6394 39.1297C70.1545 39.435 70.6696 39.7211 71.2611 39.8738C72.3676 40.16 73.5696 40.0264 74.5807 39.4922C75.5156 39.0152 76.3551 38.1376 76.5458 37.0501C76.7366 35.9436 76.1261 34.7035 74.9814 34.4173ZM62.5804 40.4461C62.5804 40.4271 62.5804 40.4461 62.5804 40.4461V40.4461ZM63.0955 40.0836C63.1909 40.2935 63.2099 40.5415 63.0764 40.7514C62.981 40.904 62.8284 40.9994 62.6376 41.0376C62.4659 41.0757 62.2751 41.0566 62.1225 40.9612L62.1034 40.9422C61.8554 41.0376 61.5311 40.9613 61.3784 40.7132C61.3593 40.6751 61.3212 40.6178 61.3212 40.5797C61.3021 40.5034 61.3212 40.4271 61.3593 40.3507C61.3975 40.2553 61.4357 40.16 61.512 40.0836C61.6455 39.8929 61.8172 39.7593 62.0462 39.6639C62.4087 39.4922 62.9047 39.683 63.0955 40.0836ZM62.2751 40.16C62.256 40.16 62.2369 40.179 62.2179 40.179H62.1988H62.1797C62.1988 40.179 62.2179 40.1981 62.256 40.1981C62.3705 40.2172 62.4468 40.3317 62.4659 40.4461H62.485H62.504H62.5231H62.5422C62.5422 40.4461 62.5613 40.4461 62.5804 40.4271C62.5804 40.4271 62.5804 40.427 62.5804 40.408V40.3889C62.5804 40.3889 62.5804 40.3889 62.5804 40.3698V40.3507V40.3698V40.3507C62.5804 40.3507 62.5804 40.3507 62.5804 40.3317V40.3126C62.5613 40.2935 62.5613 40.2744 62.5422 40.2553C62.5422 40.2553 62.5422 40.2554 62.5231 40.2363C62.5041 40.2172 62.485 40.1981 62.4659 40.1981C62.4659 40.1981 62.4659 40.1981 62.4468 40.1981C62.4277 40.1981 62.4087 40.179 62.3896 40.16C62.4087 40.16 62.4277 40.16 62.3896 40.16H62.3705H62.3514C62.3323 40.16 62.256 40.1409 62.3133 40.1409C62.3323 40.1409 62.3514 40.16 62.3133 40.1409C62.2942 40.1409 62.2942 40.1409 62.2751 40.1409C62.2942 40.16 62.2942 40.16 62.2751 40.16C62.2751 40.16 62.256 40.16 62.2751 40.16C62.2751 40.16 62.256 40.16 62.2751 40.16ZM62.5994 40.408V40.3889C62.5804 40.3889 62.5804 40.408 62.5994 40.408ZM62.5804 40.3698C62.5804 40.3507 62.5804 40.3698 62.5804 40.3698V40.3507V40.3698ZM62.2942 40.16H62.2751C62.2942 40.179 62.2942 40.16 62.2942 40.16ZM71.242 12.6869C71.1657 11.9619 70.8986 11.2369 70.3835 10.7027C69.9256 10.2448 69.3151 9.93959 68.6855 9.82512C67.9987 9.69157 67.2355 9.76788 66.625 10.1494C66.0908 10.4738 65.2514 11.485 66.0145 12.0001C66.3197 12.2099 66.6059 11.7139 66.3007 11.504C66.148 11.4086 66.5487 10.9317 66.6441 10.8363C66.8349 10.6646 67.0638 10.531 67.3118 10.4356C67.846 10.2639 68.4184 10.283 68.9335 10.4547C69.4677 10.6264 69.9447 10.9508 70.2499 11.4277C70.6315 12.0382 70.746 12.7823 70.6506 13.4691C70.4407 15.0335 69.3723 16.2737 68.075 17.0559C66.6059 17.9526 64.9461 18.2769 63.3435 18.8492C62.485 19.1545 61.6264 19.5933 61.0732 20.3374C60.558 21.0242 60.2719 21.9018 60.539 22.7413C60.6534 23.0847 61.2067 22.9321 61.0922 22.5887C60.8251 21.7683 61.2258 20.9288 61.8172 20.3565C62.485 19.7078 63.4198 19.4025 64.2784 19.1545C66.0145 18.6203 67.7888 18.1052 69.2197 16.9414C70.4789 15.9684 71.3946 14.3467 71.242 12.6869ZM60.1192 25.7938C60.0048 25.7938 59.8903 25.7938 59.7758 25.7938C59.7377 25.7938 59.6995 25.7938 59.6614 25.8129C59.6232 25.832 59.6041 25.8511 59.566 25.8701C59.5469 25.8892 59.5278 25.9274 59.5087 25.9655C59.4896 26.0037 59.4897 26.0418 59.4897 26.08C59.4897 26.1563 59.5087 26.2326 59.566 26.2899C59.6232 26.3471 59.6995 26.3662 59.7758 26.3662C59.8903 26.3662 60.0048 26.3662 60.1192 26.3662C60.1574 26.3662 60.1956 26.3662 60.2337 26.3471C60.2719 26.328 60.291 26.3089 60.3291 26.2899C60.3482 26.2708 60.3673 26.2326 60.3863 26.1945C60.4054 26.1563 60.4054 26.1182 60.4054 26.08C60.4054 26.0037 60.3863 25.9274 60.3291 25.8701C60.2719 25.8129 60.1955 25.7938 60.1192 25.7938Z" fill="#DCDCDC"/>
<path d="M32.2832 53.2475C31.9589 53.0758 32.245 52.5797 32.5694 52.7514C35.0877 54.0869 38.1021 54.4685 40.8876 53.9152C41.2501 53.8389 41.4027 54.3922 41.0402 54.4685C38.1021 55.0599 34.9542 54.6402 32.2832 53.2475ZM76.3927 90.4315C76.3164 91.6525 75.973 92.8354 75.3434 93.8847C74.7329 94.8768 73.8934 95.6972 72.9395 96.3267C70.6501 97.853 67.8074 98.4063 65.1173 98.6162C63.5147 98.7497 61.893 98.7306 60.2904 98.6352C59.4319 98.578 58.5734 98.5017 57.7148 98.3872C56.7991 98.2727 55.9215 98.101 55.0248 97.9484C53.0597 97.6241 51.0946 97.8339 49.1295 97.9866C47.3361 98.1201 45.5618 98.1392 43.8066 97.7004C42.9862 98.7497 42.0514 99.6845 41.0021 100.505C40.506 100.886 40.01 101.249 39.4758 101.592C38.8844 101.974 38.2738 102.298 37.7015 102.68C36.6331 103.405 35.3739 103.863 34.0766 103.977C31.5391 104.187 29.1162 102.928 27.5517 100.963C27.4372 100.81 27.3037 100.658 27.1892 100.486C27.1701 100.486 27.132 100.467 27.0938 100.448C25.7202 99.6082 24.1557 99.1504 22.5913 98.826C19.6532 98.1964 16.6006 97.9866 13.7389 97.0136C12.4034 96.5557 10.9152 95.907 10.0186 94.7432C9.78962 94.457 9.63699 94.1327 9.5416 93.7893C9.52252 93.7893 9.50345 93.7702 9.48438 93.7702C8.64492 93.2933 7.67192 93.1788 6.71799 93.1025C5.21079 92.988 3.39832 92.988 2.19637 91.9005C1.39507 91.1755 1.16614 89.8782 1.85297 89.0769C1.14707 88.7335 0.536535 88.1039 0.402985 87.3026C0.250357 86.4441 0.65102 85.6237 1.29969 85.0895C0.975354 84.8415 0.746403 84.4981 0.574696 84.1165C0.326676 83.5632 0.135904 82.9336 0.0405118 82.3422C-0.0548807 81.7317 0.00234084 81.1021 0.383911 80.587C0.689167 80.1863 1.1089 79.9192 1.60494 79.8429C-0.0930471 74.8062 1.87205 69.407 4.23778 64.8853C4.96277 63.5117 5.74498 62.1571 6.54628 60.8216C7.30942 59.5624 8.07255 58.3033 8.89292 57.0822C10.4001 54.8691 12.0981 52.7705 13.9487 50.8626C17.8789 46.7989 22.1334 43.67 26.884 40.6556C26.4261 40.1596 26.0827 39.53 26.3116 38.8432C26.5787 38.0228 27.5136 37.6031 28.3149 37.5649C28.3721 37.5649 28.4293 37.5649 28.4675 37.5649C28.5057 37.4505 28.5438 37.3169 28.582 37.2024C29.3069 34.8749 29.9938 32.5282 30.6424 30.1815C30.9668 29.0368 31.2911 27.8921 31.5964 26.7283C31.1194 26.4422 30.6424 26.175 30.1655 25.8889C28.601 24.9731 27.0366 24.0383 25.4722 23.1034C25.2814 22.9889 25.3004 22.7218 25.4722 22.6074C26.6169 21.8061 27.7616 20.9857 28.9063 20.1653C31.0431 18.639 33.1608 17.0746 35.2976 15.5483C36.3278 14.8043 37.3581 14.003 38.4837 13.4306C39.1515 13.0872 39.8574 12.8392 40.5824 12.6866C40.1245 12.4385 39.6475 12.1142 39.2087 11.6563C38.083 10.4734 37.6442 6.73404 40.0481 4.92159C41.8224 10.0346 45.4474 7.72613 49.2058 11.0267C52.1058 13.6023 50.1597 19.841 47.794 22.4547C48.8052 22.6646 49.7591 23.2942 50.2551 24.21C51.0946 25.7363 50.6558 27.8349 49.244 28.8651C48.6335 29.323 47.8703 29.552 47.1072 29.552C46.9164 29.552 46.7447 29.5329 46.5539 29.5138C46.7256 30.3342 46.9164 31.1355 47.1072 31.9558C47.3743 33.0815 47.6605 34.2262 47.9276 35.3518C48.2328 35.1419 48.5381 34.9321 48.8624 34.7222C49.7591 34.1499 50.6558 33.5966 51.6097 33.1196C52.0867 32.8716 52.5637 32.6236 53.0788 32.4519C53.5939 32.2802 54.1281 32.2611 54.6623 32.2802C55.1202 32.2993 55.6735 32.2992 56.055 32.5854C56.3984 32.8716 56.4366 33.3486 56.2458 33.7301C56.0359 34.1689 55.5781 34.4551 55.1965 34.7413C54.7004 35.0847 54.2044 35.4281 53.7084 35.7715C52.7353 36.4584 51.7433 37.1261 50.7703 37.8129C49.9499 38.3853 49.1295 38.9577 48.4427 39.7017C48.5572 39.9116 48.6335 40.1214 48.6716 40.3504C48.7479 40.3313 48.8243 40.3313 48.9006 40.3695C49.5683 40.732 50.217 41.0945 50.8847 41.476C53.4985 43.0023 56.0359 44.7003 58.4017 46.6081C60.7674 48.4969 62.9614 50.5956 64.9075 52.9231C66.9107 55.3079 68.6468 57.8835 70.0587 60.6499C71.5849 63.6453 72.7487 66.8123 73.55 70.0747C73.9888 71.849 74.3322 73.6615 74.5803 75.493C74.8283 77.2864 74.8664 79.0798 74.9046 80.8922C74.9427 82.533 75.0954 84.1547 75.5533 85.7382C75.7059 86.2342 75.9157 86.7302 76.0493 87.2454C76.1447 87.6078 76.2019 87.9894 76.2401 88.371C76.3927 89.0387 76.4309 89.7256 76.3927 90.4315ZM30.1082 34.2643C29.7839 35.39 29.4405 36.5156 29.0971 37.6222C30.776 37.9274 31.9589 39.5872 33.3707 40.4458C34.8969 41.3806 36.862 42.0675 38.6554 41.6859C39.6666 41.476 40.5251 40.8274 41.3646 40.255C42.2231 39.6636 43.0625 39.034 43.902 38.4044C45.1039 37.5077 46.2868 36.5919 47.5078 35.7334C47.0118 33.6157 46.4776 31.517 46.0197 29.3993C45.4664 29.2276 44.9704 28.9414 44.5697 28.5217C44.4553 28.4072 44.4553 28.2355 44.5697 28.1211C44.6842 28.0066 44.8559 28.0066 44.9704 28.1211C45.9816 29.1513 47.8131 29.3039 48.9769 28.4263C50.1407 27.5678 50.5222 25.7744 49.8163 24.4962C49.1104 23.237 47.3934 22.6074 46.0388 23.1416C45.8862 23.1988 45.7335 23.1225 45.6763 22.9699C45.6191 22.8172 45.6954 22.6646 45.848 22.6074C45.9625 22.5692 46.077 22.5311 46.2105 22.4929L45.6 22.3212C43.8066 20.337 44.7796 18.2956 44.6651 16.5404C44.5125 13.9457 43.2152 13.6786 41.6889 13.1253C40.4297 13.1635 39.2468 13.6405 38.1784 14.2701C37.091 14.9187 36.0798 15.72 35.0305 16.4641C33.9812 17.2272 32.9318 17.9713 31.8825 18.7344C29.9938 20.1081 28.105 21.4627 26.1971 22.8172C26.2544 22.8554 26.3116 22.8745 26.3498 22.9126C28.2576 24.0573 30.1846 25.2021 32.1115 26.3277C32.226 26.3849 32.2832 26.5375 32.245 26.652C32.1306 27.0908 32.0161 27.5106 31.8825 27.9494C31.3102 30.0671 30.7188 32.1657 30.1082 34.2643ZM27.3228 40.2931C27.6662 40.6556 28.0859 40.9418 28.4866 41.2471C28.8491 41.5142 29.1734 41.8194 29.4977 42.1438C31.272 44.0325 31.9398 46.5891 33.1799 48.8022C34.4009 48.3443 35.8127 48.7259 37.0337 49.012C37.8923 49.2219 38.7699 49.4127 39.6284 49.6225C40.4106 49.8133 41.231 49.9469 41.9941 50.214C42.4711 50.3857 42.9862 50.6528 43.1961 51.1297C44.1119 50.3475 44.7033 49.2028 45.6382 48.4206C46.2105 47.9245 46.9736 47.543 47.3934 46.9134C47.6605 46.5318 47.6795 46.0167 47.3171 45.7878C47.2598 45.8259 47.2217 45.8641 47.1644 45.9022C47.0309 46.0167 46.8973 46.1312 46.7638 46.2457C46.4967 46.4937 46.2677 46.7417 46.0197 47.0088C45.9243 47.1233 45.7145 47.1042 45.6191 47.0088C45.5046 46.8943 45.5237 46.7226 45.6191 46.6081C46.0006 46.1693 46.4204 45.7687 46.8592 45.4062C46.8592 45.3108 46.8973 45.1963 46.9927 45.1582C47.4125 44.9865 47.7749 44.6431 47.8703 44.1852C47.9657 43.7845 47.8131 43.4029 47.6032 43.0595C47.1263 43.4983 46.6684 43.9371 46.1914 44.376C46.0769 44.4904 45.9052 44.4904 45.7908 44.376C45.6763 44.2806 45.6763 44.0707 45.7908 43.9753C46.3059 43.4983 46.821 43.0214 47.3361 42.5253C47.3361 42.4681 47.3743 42.3918 47.4124 42.3536C48.042 41.8004 48.4045 40.9609 48.0993 40.1978C47.6795 40.6366 47.2407 41.0563 46.821 41.4951C46.7065 41.6096 46.5348 41.5905 46.4204 41.4951C46.3059 41.3806 46.3059 41.1898 46.4204 41.0945C46.9164 40.5984 47.3934 40.1024 47.8894 39.6063C47.9085 39.5682 47.9276 39.53 47.9467 39.4919C48.271 39.1103 48.6335 38.7859 49.0341 38.4616C49.8545 37.7939 50.7512 37.2024 51.6288 36.611C52.5636 35.9623 53.4985 35.3137 54.4333 34.665C54.8531 34.3788 55.33 34.1117 55.6735 33.7301C55.7879 33.5966 55.9215 33.3867 55.8642 33.1959C55.807 33.0242 55.5781 32.9861 55.4063 32.9479C54.9103 32.8716 54.3761 32.8335 53.8801 32.9098C53.3459 32.9861 52.8689 33.215 52.3919 33.444C48.8052 35.2183 45.7526 37.832 42.5093 40.1596C41.6889 40.751 40.8494 41.3806 39.9528 41.8385C39.1515 42.2392 38.2548 42.3918 37.3581 42.3536C35.641 42.2582 33.9049 41.5714 32.4931 40.5602C31.6918 39.9879 31.024 39.2057 30.1846 38.6905C29.4214 38.2136 28.4675 37.9465 27.609 38.3281C27.2846 38.4807 26.9412 38.7287 26.8649 39.0912C26.7695 39.53 27.0366 39.9879 27.3228 40.2931ZM11.0488 90.6604C11.087 90.6223 11.1251 90.6032 11.1633 90.5841C10.9725 90.3361 10.8008 90.0881 10.6291 89.84C10.2284 89.2677 9.80871 88.7144 9.29359 88.2184C8.79755 87.7414 8.22517 87.3407 7.65282 86.9592C6.50811 86.196 5.28709 85.4901 4.37133 84.4599C3.37924 83.3533 2.53979 82.0942 1.96744 80.7205C1.9102 80.606 1.87203 80.4916 1.83387 80.3771H1.8148C1.37599 80.3962 0.994419 80.6633 0.784555 81.0448C0.536535 81.5027 0.57471 82.0369 0.70826 82.5139C0.918123 83.3534 1.16613 84.4027 2.00558 84.8224C2.19637 84.9178 2.17729 85.223 2.00558 85.3184C1.35692 85.6809 0.860883 86.425 1.01351 87.2072C1.16614 87.9513 1.81481 88.5046 2.52072 88.6953C2.74966 88.7717 2.80688 89.096 2.59701 89.2104C2.06282 89.5348 1.94836 90.1262 2.13915 90.6986C2.55888 92.015 4.25685 92.3012 5.43972 92.4156C6.81337 92.5492 8.26334 92.511 9.52252 93.1215C9.5416 92.9498 9.56068 92.7972 9.61792 92.6255C9.84686 91.8624 10.4574 91.2328 11.0488 90.6604ZM26.407 99.4556C26.0064 98.9023 25.6057 98.3681 25.1478 97.853C24.5373 97.1471 23.8886 96.4794 23.1637 95.907C21.9999 94.9912 20.6644 94.457 19.2526 94.0755C17.3638 93.5603 15.4559 93.1025 13.6053 92.4919C13.281 92.3775 12.9376 92.3012 12.6514 92.0913C12.3843 91.9005 12.1363 91.6907 11.9073 91.4617C11.7738 91.3282 11.6402 91.1755 11.5067 91.0229C11.4876 91.042 11.4876 91.0611 11.4685 91.0802C10.8771 91.6716 10.0758 92.3966 10.0758 93.2933C10.0567 94.1136 10.7435 94.7814 11.3731 95.2202C12.4797 96.0024 13.777 96.4794 15.0934 96.8228C16.5052 97.2044 17.9361 97.4333 19.367 97.6813C21.6946 98.0629 24.213 98.4063 26.407 99.4556ZM43.1961 97.5668C42.8527 97.4524 43.0053 96.9182 43.3487 97.0136C43.425 97.0326 43.4823 97.0517 43.5586 97.0708C43.5586 97.0708 43.5586 97.0708 43.5586 97.0517C44.8559 95.2774 45.7145 93.236 46.1342 91.0802C47.0118 86.4822 45.8671 81.6554 44.0356 77.439C43.5395 76.2943 42.8908 75.2068 42.4711 74.024C42.1086 72.9937 41.9369 71.9062 41.956 70.8378C41.9751 68.7964 42.6428 66.8504 43.1198 64.8853C43.5967 62.8821 43.8066 60.8598 43.0816 58.8947C42.8718 58.3223 42.5856 57.7691 42.2612 57.2539C42.0705 56.9487 41.8797 56.6625 41.6698 56.3954C41.46 56.1092 41.1356 55.8421 40.983 55.5178C40.8494 55.2507 40.735 54.9073 40.6777 54.5639H40.7159C40.7731 53.5909 41.8415 52.9804 42.4139 52.2935C42.6237 52.0455 42.8527 51.7021 42.7001 51.3396C42.4902 50.8436 41.7843 50.6719 41.3264 50.5574C39.7429 50.1567 38.1212 49.8133 36.5377 49.4318C35.9272 49.2982 35.3167 49.1647 34.6871 49.1456C34.1529 49.1265 33.5805 49.1647 33.1036 49.4508C32.5503 49.7752 32.3977 50.3475 32.3977 50.939C32.3977 51.5876 32.5121 52.1981 32.4167 52.8468C32.3595 53.2093 31.8062 53.0567 31.8635 52.6942C31.997 51.931 31.749 51.1488 31.8635 50.3666C31.9398 49.8133 32.245 49.3554 32.6838 49.0502C32.0161 47.8864 31.5201 46.6272 30.9477 45.4062C30.5852 44.624 30.1655 43.8799 29.6504 43.174C29.078 42.4109 28.353 41.8385 27.609 41.2661C27.5326 41.2089 27.4372 41.1326 27.3609 41.0563C26.1399 41.8385 25.3005 42.4299 24.0985 43.2694C19.596 46.3601 15.3605 49.8515 11.9073 54.0678C10.133 56.2237 8.66399 58.5513 7.21403 60.917C5.64959 63.4735 4.14238 66.1064 3.0549 68.9109C2.06282 71.4293 1.39508 74.1193 1.60494 76.8476C1.83388 79.633 3.09306 82.3422 5.05815 84.3264C6.03115 85.3184 7.27125 85.9862 8.41596 86.7684C8.96924 87.15 9.52252 87.5888 9.99949 88.0848C10.4574 88.5618 10.8389 89.1151 11.2396 89.6683C11.6402 90.2216 12.0409 90.7749 12.556 91.2328C12.8231 91.4808 13.1093 91.6907 13.4718 91.8051C13.7579 91.9005 14.0441 91.9959 14.3303 92.0913C15.3224 92.4156 16.3336 92.7018 17.3447 92.9498C18.8328 93.3314 20.3591 93.6558 21.7518 94.3235C23.259 95.0294 24.4991 96.1741 25.5866 97.4333C26.4261 98.3872 27.1702 99.4175 27.9142 100.448C28.6583 101.497 29.7076 102.336 30.8905 102.871C31.997 103.367 33.2371 103.538 34.4391 103.367C35.0496 103.271 35.641 103.1 36.2134 102.871C36.843 102.584 37.3962 102.165 37.9877 101.84C39.9337 100.753 41.7652 99.3411 43.1961 97.5668ZM75.6868 88.0467C75.5342 87.1309 75.1526 86.2724 74.9237 85.3757C74.7138 84.5744 74.5802 83.754 74.5039 82.9336C74.3513 81.3883 74.4085 79.8238 74.3322 78.2594C74.1605 74.6345 73.3974 70.9905 72.329 67.5373C71.3751 64.4847 70.0777 61.5275 68.4561 58.7612C66.9107 56.1665 65.0792 53.7435 63.0187 51.5495C60.9964 49.3936 58.7451 47.4476 56.3603 45.6924C53.9564 43.9181 51.4189 42.3536 48.8052 40.9227C48.7479 41.5333 48.4618 42.1247 48.023 42.5826C48.3664 43.0977 48.6144 43.6891 48.4618 44.3187C48.3664 44.7384 48.0993 45.1009 47.7559 45.368C48.042 45.616 48.2137 45.9976 48.1756 46.4173C48.1183 47.0469 47.6986 47.5239 47.2217 47.9055C46.6875 48.3443 46.077 48.7259 45.6 49.241C44.8178 50.0804 44.2263 51.0916 43.3106 51.7784C43.2724 52.0646 43.1389 52.3317 42.9672 52.5797C42.6619 52.9804 42.2803 53.3047 41.9178 53.6481C41.6507 53.9152 41.3073 54.2396 41.2882 54.6402C41.3264 54.8691 41.3836 55.1362 41.4981 55.327C41.6507 55.575 41.8988 55.804 42.0895 56.052C43.5204 57.9217 44.3027 60.1348 44.1119 62.5196C43.9592 64.5419 43.2533 66.4689 42.8336 68.4339C42.3757 70.5898 42.433 72.7648 43.406 74.7871C43.9592 75.9509 44.5507 77.0956 45.0276 78.2976C45.4855 79.4613 45.8862 80.6442 46.2105 81.8461C47.3552 86.2151 47.4506 90.9847 45.4474 95.1248C45.0849 95.8689 44.6651 96.5748 44.1882 97.2425C44.875 97.4142 45.6 97.5096 46.3059 97.5287C48.1947 97.6241 50.0644 97.3188 51.9531 97.2425C52.9261 97.2043 53.9182 97.2425 54.8721 97.3761C55.7879 97.5096 56.6846 97.7004 57.6004 97.8148C60.7483 98.2155 63.9726 98.33 67.1206 97.8148C69.5626 97.4142 72.1382 96.6129 73.9125 94.8195C75.6677 93.0071 76.0875 90.4887 75.6868 88.0467ZM58.1346 79.2324C58.5925 79.6521 58.3826 80.2435 58.0201 80.6442C57.6004 81.1212 56.9326 81.5218 56.284 81.4073C55.7688 81.331 55.4445 80.9113 55.33 80.4343C55.3109 80.358 55.2919 80.2626 55.2537 80.1863C54.9103 80.4725 54.6241 80.8159 54.2998 81.1402C53.8801 81.56 53.4222 81.9034 52.8689 82.1514C51.8005 82.6474 50.5795 82.8382 49.3966 82.6665C49.0341 82.6093 49.1868 82.056 49.5493 82.1133C49.8545 82.1514 50.1407 82.1705 50.4459 82.1514C51.7051 82.0942 52.9452 81.6553 53.861 80.7587C54.2426 80.3771 54.605 79.9765 55.0248 79.633C54.3761 78.2212 53.0979 77.1719 52.3156 75.8364C51.8577 75.0542 51.6097 74.1957 51.7814 73.2799C51.8768 72.7266 52.163 72.2496 52.411 71.7727C52.659 71.3339 53.0788 70.6852 52.8689 70.151C52.659 69.5977 51.8577 69.5023 51.3808 69.2734C50.8466 69.0254 50.3696 68.6629 49.9499 68.2622C49.1295 67.4419 48.5572 66.3544 48.3854 65.2097C48.3282 64.8472 48.8815 64.6946 48.9387 65.0571C49.1104 66.2972 49.7591 67.4228 50.7321 68.205C51.2091 68.5866 51.7433 68.8346 52.3156 69.0445C52.9261 69.2734 53.4413 69.655 53.4794 70.3609C53.5367 71.4483 52.5637 72.3069 52.3347 73.3371C52.1439 74.1384 52.411 74.9207 52.8307 75.6266C53.613 76.9239 54.834 77.9541 55.5017 79.3278C55.9024 79.1179 56.3412 79.0034 56.78 78.9462C57.2379 78.889 57.7912 78.9271 58.1346 79.2324ZM56.9899 79.4995C56.5701 79.5186 56.1122 79.633 55.7307 79.8429C55.7497 79.8811 55.7498 79.9001 55.7688 79.9383C55.8833 80.2817 55.9215 80.7777 56.3603 80.854C56.6846 80.9113 57.028 80.7205 57.2761 80.5297C57.4859 80.3771 57.7148 80.1672 57.7912 79.9192C57.9438 79.4995 57.2379 79.4804 56.9899 79.4995ZM40.3343 17.4943C39.8764 18.0094 39.533 18.6009 39.3041 19.2496C39.2468 19.3831 39.3613 19.5739 39.4949 19.593C39.6475 19.6311 39.8001 19.5357 39.8383 19.4022C39.8574 19.3259 39.8955 19.2686 39.9146 19.1923C39.9146 19.1732 39.9337 19.1542 39.9337 19.1351V19.116C39.9528 19.0778 39.9718 19.0397 39.9718 19.0206C40.0291 18.8871 40.1054 18.7344 40.1817 18.6009C40.258 18.4673 40.3343 18.3529 40.4297 18.2193C40.4488 18.1812 40.4679 18.1621 40.487 18.1239C40.487 18.1239 40.487 18.1239 40.487 18.1049C40.487 18.1049 40.487 18.1048 40.487 18.0858C40.506 18.0667 40.506 18.0476 40.5251 18.0476C40.5823 17.9904 40.6205 17.9331 40.6777 17.8568C40.7731 17.7424 40.7922 17.5516 40.6777 17.4562C40.6205 17.3989 40.4297 17.3799 40.3343 17.4943ZM37.2627 19.3831C37.4153 19.4594 37.5679 19.4022 37.6633 19.2877C38.0258 18.7726 38.3883 18.2575 38.7508 17.7424C38.8462 17.6279 38.7699 17.418 38.6554 17.3417C38.5028 17.2654 38.3502 17.3226 38.2548 17.4371C37.8923 17.9522 37.5298 18.4673 37.1673 18.9825C37.0719 19.116 37.1291 19.3259 37.2627 19.3831ZM37.5679 16.0062C38.0449 16.1207 38.5409 16.2351 39.0179 16.3496C39.1705 16.3878 39.3422 16.3115 39.3613 16.1588C39.3995 16.0062 39.3232 15.8345 39.1705 15.8154C38.6936 15.701 38.1975 15.5865 37.7206 15.472C37.5679 15.4339 37.3962 15.5102 37.3772 15.6628C37.3199 15.7963 37.4153 15.9681 37.5679 16.0062ZM40.1245 15.5674C40.258 15.6437 40.4488 15.6056 40.5251 15.472C40.6587 15.2049 40.8494 14.9951 41.1165 14.8615C41.3455 14.747 41.5935 14.6898 41.8415 14.7852C41.8415 14.7852 41.8988 14.8043 41.8988 14.8233C41.9178 14.8424 41.9369 14.8424 41.956 14.8615C41.9751 14.8615 41.9751 14.8806 41.9941 14.8806C41.9941 14.8806 41.9942 14.8806 42.0132 14.8997C42.0323 14.9187 42.0705 14.9378 42.0895 14.976C42.0895 14.976 42.1277 15.0332 42.1468 15.0332C42.1659 15.0523 42.1658 15.0714 42.1849 15.0904C42.204 15.1286 42.2231 15.1477 42.2422 15.1858C42.2422 15.2049 42.2612 15.224 42.2612 15.224C42.2803 15.2812 42.2994 15.3385 42.3185 15.3957C42.3185 15.3957 42.3185 15.3957 42.3185 15.4148C42.3185 15.4338 42.3185 15.4339 42.3185 15.4529C42.3185 15.4911 42.3185 15.5102 42.3185 15.5483C42.3185 15.5483 42.3185 15.5483 42.3185 15.5674C42.3185 15.6056 42.2994 15.6246 42.2994 15.6628C42.2994 15.6628 42.2994 15.6628 42.2994 15.6819C42.2994 15.7009 42.2803 15.701 42.2803 15.72C42.2803 15.7391 42.2231 15.8154 42.2612 15.7582C42.1659 15.8727 42.1468 16.0444 42.2612 16.1588C42.3566 16.2542 42.5665 16.2733 42.6619 16.1588C42.8527 15.9299 42.929 15.6437 42.8908 15.3385C42.8527 15.0523 42.7191 14.7852 42.5284 14.5944C42.0705 14.1174 41.3646 14.1174 40.8304 14.4418C40.506 14.6326 40.2389 14.9187 40.0863 15.2431C39.9337 15.3194 39.9718 15.4911 40.1245 15.5674ZM33.3897 36.5538C33.4851 36.6682 33.695 36.6492 33.7904 36.5538C33.9049 36.4393 33.8858 36.2676 33.7904 36.1531C33.4088 35.6762 33.1417 35.1229 32.9891 34.5505C32.8746 34.1308 32.7601 33.5203 33.0272 33.1196C33.3134 32.6999 33.8476 33.0433 34.0575 33.3677C34.2292 33.6157 34.2864 33.9209 34.3627 34.2071C34.4391 34.5124 34.5345 34.8176 34.668 35.1229C34.8397 35.4472 35.3167 35.161 35.164 34.8367C34.8969 34.3025 34.8969 33.692 34.6108 33.1769C34.3627 32.7381 33.9049 32.3374 33.3707 32.3565C32.8555 32.3756 32.4931 32.7762 32.3786 33.2532C32.245 33.7683 32.3404 34.3216 32.4931 34.8367C32.6648 35.4472 32.97 36.0386 33.3897 36.5538ZM31.1766 53.0948C27.609 54.5448 25.0524 57.9789 24.4419 61.7565C24.2893 62.6913 24.2511 63.6643 24.3465 64.6182C24.4038 65.0952 24.4801 65.5722 24.5945 66.0301C24.7472 66.6597 24.957 67.2892 25.0524 67.9188C25.2241 69.0063 24.938 69.9984 24.3084 70.876C23.7169 71.7155 22.9156 72.4214 22.1334 73.0891C20.4736 74.5582 18.394 76.8667 19.5387 79.2515C19.6914 79.5758 20.1874 79.2896 20.0348 78.9653C19.0809 76.9621 20.9887 74.9016 22.3624 73.6615C23.7933 72.3832 25.4722 70.9905 25.6629 68.9491C25.7774 67.7471 25.2814 66.5833 25.0334 65.4196C24.8426 64.5229 24.8044 63.6071 24.8807 62.6913C25.0334 60.8598 25.6629 59.0664 26.6741 57.5401C27.7997 55.8231 29.4023 54.4112 31.3102 53.629C31.6536 53.4955 31.52 52.9422 31.1766 53.0948ZM46.096 26.156C46.1151 26.1369 46.1342 26.1178 46.1533 26.0797C46.1914 26.0415 46.2105 26.0033 46.2487 25.9652C46.325 25.8889 46.3822 25.8126 46.4585 25.7553C46.6111 25.6218 46.7256 25.5264 46.8973 25.4119C47.2407 25.202 47.546 25.0494 47.9276 24.954C48.0802 24.9159 48.1756 24.7442 48.1184 24.6106C48.0802 24.458 47.9085 24.3817 47.7749 24.4198C46.8973 24.6297 46.1342 25.1639 45.6 25.8698C45.5046 25.9843 45.5809 26.1941 45.6954 26.2704C45.848 26.3468 46.0006 26.2704 46.096 26.156Z" fill="#DCDCDC"/>
</svg>
