<svg width="126" height="173" viewBox="0 0 126 173" fill="none" xmlns="http://www.w3.org/2000/svg">
<path d="M52.1751 92.8545C53.8074 87.2355 55.7537 82.5269 58.0452 78.6659C60.3367 74.8048 63.3502 70.3787 67.0543 65.3876C69.7539 61.6835 71.8885 58.6072 73.4267 56.2215C74.9648 53.8358 76.2518 51.1676 77.2877 48.2169C78.2922 45.2661 78.7945 42.1271 78.7945 38.7369V38.6427C78.7945 32.7726 77.2877 28.2209 74.2742 24.9563C71.2607 21.7231 67.0543 20.0907 61.6551 20.0907C56.1931 20.0907 51.9554 22.0997 48.9419 26.1178C45.9284 30.1358 44.3902 35.8175 44.3274 43.1943V43.2885H23.3584V43.1943C23.6409 34.2794 25.3046 26.6514 28.4123 20.3418C31.52 14.0323 35.8833 9.19813 41.4708 5.9021C47.0898 2.60607 53.7447 0.942383 61.4354 0.942383C69.4714 0.942383 76.3774 2.41773 82.0905 5.39985C87.835 8.38198 92.1983 12.6825 95.2118 18.3329C98.2254 23.9832 99.7321 30.7636 99.7321 38.7369V38.831C99.7321 43.6338 99.1043 47.9343 97.8487 51.7954C96.593 55.6565 95.0863 58.9839 93.297 61.8404C91.5077 64.6656 89.0593 68.1186 85.9516 72.168C82.5614 76.4999 79.8304 80.3296 77.7586 83.657C75.6554 87.0158 73.8975 91.0339 72.4849 95.7111C71.0723 100.42 70.3503 105.819 70.3503 111.971H49.6953C49.758 104.846 50.5428 98.4734 52.1751 92.8545ZM49.2244 128.138H70.9154V149.829H49.2244V128.138Z" fill="#107EFF"/>
<path d="M124.688 144.461C121.863 136.738 123.432 133.474 122.334 125.438C121.141 116.805 118.441 107.953 114.863 100.168C113.638 97.5 111.535 94.2981 109.526 92.0066C100.894 82.2127 92.9518 73.4232 80.3327 67.7415V67.8043C80.1758 66.9254 80.0188 66.0464 79.8305 65.1989C80.9606 64.1002 82.3418 63.1271 83.723 62.1854C86.0459 60.5844 88.3374 58.9835 90.6603 57.414C91.2253 57.0373 91.7904 56.6292 92.1043 56.1269C92.4182 55.6247 92.4496 54.9655 91.9787 54.6202C91.6334 54.3691 91.0998 54.3377 90.5975 54.2749C89.8441 54.2121 89.0594 54.1493 88.306 54.3063C87.5526 54.4319 86.8306 54.7458 86.1714 55.0911C83.4404 56.4095 80.992 57.979 78.6063 59.6427C77.8529 56.4409 77.0053 53.082 76.1264 49.064C76.1264 49.0012 76.1264 48.9698 76.1578 48.9071C77.7587 49.3151 79.548 49.064 80.8664 48.0595C82.9696 46.49 83.6602 43.2881 82.3731 40.9966C81.3372 39.1445 79.1085 38.0459 77.0053 38.2342C77.2251 27.9066 74.9963 21.7854 69.0007 22.068C66.3011 22.0052 63.6015 23.1981 61.3727 24.7676C54.6865 29.4762 48.1258 34.3731 42.193 38.5167C42.193 38.5167 49.1303 42.6603 52.5519 44.6693C52.5519 44.6693 49.6326 55.4991 47.2783 62.9074C47.1841 62.9074 47.1213 62.8759 47.0272 62.8759C45.646 62.8132 44.1078 63.5038 43.7311 64.6339C43.4486 65.5128 43.8881 66.4859 44.5473 67.2079C44.7356 67.4276 44.9554 67.616 45.1751 67.8043C31.9596 77.5668 23.0446 82.5893 15.3225 95.4596C12.4973 100.137 6.40753 109.24 4.64965 114.294C2.51508 120.478 0.192163 126.442 3.39402 133.128C2.32673 133.285 0.694392 133.85 0.506047 134.792C0.286312 135.828 0.600235 136.895 0.914143 137.9C1.25944 139.061 1.7303 140.348 2.95454 140.913C1.63613 141.635 0.882752 143.048 1.0711 144.398C1.25944 145.748 2.4209 146.94 3.89626 147.348C2.20116 148.353 2.54646 150.801 4.05322 151.994C5.59136 153.187 7.78873 153.438 9.82912 153.595C11.8695 153.752 14.0355 153.846 15.762 154.851L15.9817 154.568C16.0131 156.106 17.3315 157.393 18.7755 158.304C25.807 162.793 37.6099 161.474 44.7356 165.838L45.4576 166.622C47.7492 169.291 51.0138 171.77 54.8435 171.739C57.5117 171.708 59.9601 170.483 62.1575 169.165C65.7674 166.968 69.0949 164.299 71.6375 161.192C78.6377 163.169 84.5077 160.219 91.759 161.945C103.374 164.708 119.885 161.286 122.239 157.08C124.531 153.156 126.195 148.573 124.688 144.461Z" fill="#F1F1F4"/>
<path d="M25.7447 29.7272C26.0586 31.8931 26.1214 34.1219 26.2469 36.3192C26.2783 36.9157 25.3366 36.9157 25.3052 36.3192C25.1796 34.2788 25.1169 32.2071 24.8658 30.198C24.6774 28.6599 24.2693 26.9962 23.2648 25.772C22.4172 24.7675 21.1302 24.0141 19.7804 23.9827C18.462 23.9827 17.2064 24.8302 17.0181 26.18C16.9239 26.8079 17.1436 27.467 17.6773 27.8437C18.1481 28.189 18.8073 28.346 19.341 28.0321C19.8746 27.7496 20.3455 28.5657 19.8118 28.8483C18.1167 29.7586 16.0449 28.3146 16.0449 26.4625C16.0449 24.736 17.4575 23.2921 19.1526 23.041C20.7535 22.8212 22.4173 23.5432 23.5473 24.6419C24.8971 25.9917 25.4935 27.9065 25.7447 29.7272ZM31.3009 42.9741C31.2695 42.9741 31.3009 42.9741 31.3009 42.9741C31.2695 42.9741 31.2695 42.9741 31.3009 42.9741C31.2695 42.9427 31.2694 42.9427 31.2694 42.9427C31.2694 42.9741 31.2695 42.9741 31.3009 42.9741ZM31.1753 43.3822C31.1753 43.3508 31.1753 43.3508 31.1753 43.3822V43.3822ZM32.2426 43.0683C32.2112 43.6647 31.8345 44.1042 31.3636 44.4495C31.2695 44.5122 31.1753 44.575 31.0811 44.6378C30.9555 44.732 30.7986 44.7634 30.6416 44.732C30.5788 44.7006 30.5161 44.6692 30.4533 44.6378C30.2336 44.4808 30.0766 44.2611 29.9824 43.9786C29.8569 43.6019 29.9197 43.0996 30.2022 42.7857C30.1708 42.6916 30.1708 42.5974 30.2022 42.5032C30.2964 42.2207 30.5161 42.001 30.7986 41.9068C31.0497 41.844 31.3008 41.8754 31.5206 41.9696C31.9287 42.1893 32.274 42.5974 32.2426 43.0683ZM30.8614 43.7589C30.8614 43.7275 30.8614 43.7589 30.8614 43.7589C30.8614 43.7275 30.8614 43.7275 30.8614 43.7589ZM30.8928 43.3822C30.9242 43.3508 30.9555 43.3194 30.8928 43.3822V43.3822ZM31.0811 42.7543C31.0811 42.7857 31.0811 42.7857 31.0811 42.7543C31.0497 42.7857 31.0497 42.7857 31.0811 42.7543C31.0811 42.7857 31.0811 42.7857 31.0811 42.7543ZM31.2381 43.288C31.2381 43.2566 31.2694 43.2252 31.2694 43.2252C31.2694 43.1938 31.3009 43.1624 31.3009 43.0996C31.3009 43.0682 31.3009 43.0369 31.3009 43.0055L31.2694 42.9741V43.0055C31.238 42.9741 31.2381 42.9741 31.2067 42.9427C31.2067 42.9427 31.2067 42.9427 31.1753 42.9427C31.1439 42.9427 31.1125 42.9113 31.1125 42.9113H31.0811C31.0811 42.9113 31.0811 42.9113 31.0497 42.9113C31.0497 42.9741 31.0811 43.0055 31.0811 43.0683C31.0811 43.1624 31.0183 43.3194 30.9555 43.4135C30.9241 43.4449 30.8928 43.4763 30.8614 43.4763L30.83 43.5077V43.5391C30.83 43.5705 30.83 43.5705 30.83 43.6019C30.83 43.6333 30.83 43.6961 30.83 43.7275C30.83 43.7275 30.83 43.7275 30.83 43.7589C30.8614 43.7275 30.9556 43.6647 30.83 43.7589C30.8614 43.7275 30.8614 43.7275 30.8928 43.6961C30.9555 43.6647 30.9869 43.6019 31.0497 43.5705C31.0811 43.5391 31.0811 43.5391 31.1125 43.5077L31.1439 43.4763C31.1439 43.4763 31.1439 43.5077 31.1125 43.5077C31.1753 43.3822 31.2067 43.3194 31.2381 43.288ZM123.37 57.5708C122.773 57.4139 122.522 58.3242 123.119 58.4811C124.688 58.8892 125.348 60.7099 124.908 62.1538C124.406 63.8176 122.805 65.0104 121.204 65.5126C119.477 66.0463 117.563 65.8893 115.962 65.0104C114.455 64.1942 113.011 62.9072 111.19 62.8444C109.652 62.7816 107.894 63.692 107.8 65.3871C107.769 65.9835 108.71 65.9835 108.742 65.3871C108.836 63.8803 110.876 63.5978 112.006 63.9431C112.948 64.2256 113.764 64.8221 114.581 65.3243C115.428 65.8266 116.276 66.2974 117.249 66.5486C119.069 67.0194 121.047 66.7997 122.711 65.9207C124.249 65.136 125.63 63.692 125.944 61.9027C126.258 60.082 125.253 58.0417 123.37 57.5708ZM102.966 67.4903C102.966 67.4589 102.966 67.4903 102.966 67.4903V67.4903ZM103.813 66.8938C103.97 67.2391 104.002 67.6472 103.782 67.9925C103.625 68.2436 103.374 68.4006 103.06 68.4634C102.778 68.5262 102.464 68.4948 102.213 68.3378L102.181 68.3064C101.773 68.4634 101.239 68.3378 100.988 67.9298C100.957 67.867 100.894 67.7728 100.894 67.71C100.863 67.5844 100.894 67.4589 100.957 67.3333C101.02 67.1764 101.082 67.0194 101.208 66.8938C101.428 66.5799 101.71 66.3602 102.087 66.2033C102.683 65.9207 103.5 66.2346 103.813 66.8938ZM102.464 67.0194C102.432 67.0194 102.401 67.0508 102.369 67.0508H102.338H102.307C102.338 67.0508 102.37 67.0822 102.432 67.0822C102.621 67.1136 102.746 67.3019 102.778 67.4903H102.809H102.84H102.872H102.903C102.903 67.4903 102.935 67.4903 102.966 67.4589C102.966 67.4589 102.966 67.4589 102.966 67.4275V67.3961C102.966 67.3961 102.966 67.3961 102.966 67.3647V67.3333V67.3647V67.3333C102.966 67.3333 102.966 67.3333 102.966 67.3019V67.2705C102.935 67.2391 102.935 67.2078 102.903 67.1764C102.903 67.1764 102.903 67.1764 102.872 67.145C102.84 67.1136 102.809 67.0822 102.778 67.0822C102.778 67.0822 102.778 67.0822 102.746 67.0822C102.715 67.0822 102.683 67.0508 102.652 67.0194C102.683 67.0194 102.715 67.0194 102.652 67.0194H102.621H102.589C102.558 67.0194 102.432 66.988 102.526 66.988C102.558 66.988 102.589 67.0194 102.526 66.988C102.495 66.988 102.495 66.988 102.464 66.988C102.495 67.0194 102.495 67.0194 102.464 67.0194C102.464 67.0194 102.432 67.0194 102.464 67.0194C102.464 67.0194 102.432 67.0194 102.464 67.0194ZM102.997 67.4275V67.3961C102.966 67.3961 102.966 67.4275 102.997 67.4275ZM102.966 67.3647C102.966 67.3333 102.966 67.3647 102.966 67.3647V67.3333V67.3647ZM102.495 67.0194H102.464C102.495 67.0508 102.495 67.0194 102.495 67.0194ZM117.217 21.8167C117.092 20.6239 116.652 19.431 115.805 18.5521C115.051 17.7987 114.047 17.2965 113.011 17.1081C111.881 16.8884 110.625 17.0139 109.621 17.6417C108.742 18.1754 107.361 19.8391 108.616 20.6867C109.119 21.032 109.589 20.2158 109.087 19.8705C108.836 19.7135 109.495 18.9288 109.652 18.7718C109.966 18.4893 110.343 18.2696 110.751 18.1126C111.63 17.8301 112.572 17.8615 113.419 18.144C114.298 18.4265 115.083 18.9602 115.585 19.7449C116.213 20.7494 116.401 21.9737 116.244 23.1037C115.899 25.6778 114.141 27.7182 112.006 29.0052C109.589 30.4806 106.858 31.0142 104.222 31.9559C102.809 32.4582 101.396 33.1802 100.486 34.4044C99.6385 35.5345 99.1677 36.9784 99.6071 38.3596C99.7955 38.9247 100.706 38.6736 100.517 38.1085C100.078 36.7587 100.737 35.3775 101.71 34.4358C102.809 33.3685 104.347 32.8663 105.76 32.4582C108.616 31.5793 111.536 30.7317 113.89 28.8168C115.962 27.2159 117.468 24.5477 117.217 21.8167ZM98.9165 43.3822C98.7282 43.3822 98.5398 43.3822 98.3515 43.3822C98.2887 43.3822 98.2259 43.3822 98.1632 43.4135C98.1004 43.4449 98.069 43.4763 98.0062 43.5077C97.9748 43.5391 97.9434 43.6019 97.912 43.6647C97.8806 43.7275 97.8806 43.7902 97.8806 43.853C97.8806 43.9786 97.912 44.1041 98.0062 44.1983C98.1004 44.2925 98.2259 44.3239 98.3515 44.3239C98.5398 44.3239 98.7282 44.3239 98.9165 44.3239C98.9793 44.3239 99.0421 44.3239 99.1049 44.2925C99.1677 44.2611 99.1991 44.2297 99.2618 44.1983C99.2932 44.1669 99.3246 44.1041 99.356 44.0414C99.3874 43.9786 99.3874 43.9158 99.3874 43.853C99.3874 43.7275 99.356 43.6019 99.2618 43.5077C99.1677 43.4136 99.0421 43.3822 98.9165 43.3822Z" fill="#1E1E1E"/>
<path d="M53.117 88.5528C52.5834 88.2703 53.0543 87.4542 53.5879 87.7367C57.7315 89.934 62.6912 90.5618 67.2743 89.6515C67.8707 89.5259 68.1218 90.4363 67.5254 90.5618C62.6912 91.535 57.5117 90.8444 53.117 88.5528ZM125.692 149.733C125.567 151.742 125.002 153.689 123.966 155.415C122.961 157.047 121.58 158.397 120.011 159.433C116.244 161.944 111.567 162.855 107.141 163.2C104.504 163.42 101.835 163.388 99.1986 163.231C97.7861 163.137 96.3735 163.012 94.9609 162.823C93.4541 162.635 92.0102 162.352 90.5348 162.101C87.3016 161.568 84.0683 161.913 80.8351 162.164C77.8843 162.384 74.965 162.415 72.077 161.693C70.7272 163.42 69.1891 164.958 67.4626 166.308C66.6464 166.936 65.8303 167.532 64.9513 168.097C63.9782 168.725 62.9737 169.258 62.032 169.886C60.2741 171.079 58.2023 171.832 56.0677 172.021C51.8928 172.366 47.9062 170.294 45.3321 167.061C45.1438 166.81 44.924 166.559 44.7357 166.276C44.7043 166.276 44.6415 166.245 44.5787 166.214C42.3186 164.832 39.7446 164.079 37.1705 163.545C32.3363 162.509 27.3138 162.164 22.6052 160.563C20.4078 159.81 17.9594 158.743 16.484 156.828C16.1073 156.357 15.8562 155.823 15.6992 155.258C15.6678 155.258 15.6365 155.227 15.6051 155.227C14.2239 154.442 12.623 154.254 11.0534 154.128C8.57355 153.94 5.59141 153.94 3.61379 152.15C2.29538 150.958 1.91871 148.823 3.04878 147.505C1.88732 146.94 0.882785 145.904 0.66305 144.585C0.411924 143.173 1.07115 141.823 2.13844 140.944C1.6048 140.536 1.22809 139.971 0.945574 139.343C0.537494 138.433 0.22361 137.397 0.066656 136.424C-0.0902978 135.419 0.00385149 134.383 0.631667 133.536C1.13392 132.877 1.82452 132.437 2.64068 132.312C-0.153095 124.024 3.08017 115.141 6.97262 107.701C8.16547 105.441 9.45248 103.212 10.7709 101.015C12.0265 98.9431 13.2821 96.8714 14.6319 94.8624C17.1118 91.221 19.9056 87.7681 22.9505 84.629C29.417 77.9427 36.4171 72.7947 44.2334 67.8349C43.4801 67.0188 42.915 65.9829 43.2917 64.8528C43.7312 63.503 45.2693 62.8124 46.5877 62.7496C46.6819 62.7496 46.7761 62.7496 46.8389 62.7496C46.9017 62.5613 46.9644 62.3416 47.0272 62.1532C48.2201 58.3235 49.3501 54.4625 50.4174 50.6014C50.951 48.718 51.4847 46.8345 51.9869 44.9197C51.2022 44.4488 50.4174 44.0093 49.6326 43.5385C47.0586 42.0317 44.4846 40.4936 41.9105 38.9554C41.5966 38.7671 41.628 38.3276 41.9105 38.1393C43.794 36.8209 45.6774 35.4711 47.5608 34.1213C51.0766 31.61 54.561 29.036 58.0768 26.5247C59.7719 25.3005 61.467 23.9821 63.319 23.0403C64.4177 22.4753 65.5792 22.0672 66.772 21.8161C66.0186 21.408 65.2338 20.8744 64.5119 20.121C62.6598 18.1748 61.9378 12.0222 65.8931 9.04004C68.8124 17.4528 74.7766 13.6545 80.9606 19.0851C85.732 23.3228 82.5302 33.5876 78.6377 37.8881C80.3014 38.2334 81.8709 39.2694 82.6871 40.7761C84.0683 43.2874 83.3463 46.7403 81.0234 48.4354C80.0189 49.1888 78.7633 49.5655 77.5076 49.5655C77.1937 49.5655 76.9112 49.5341 76.5973 49.5027C76.8798 50.8525 77.1937 52.171 77.5076 53.5208C77.9471 55.3728 78.418 57.2562 78.8575 59.1083C79.3597 58.763 79.8619 58.4177 80.3956 58.0724C81.8709 57.1307 83.3463 56.2204 84.9158 55.4356C85.7006 55.0275 86.4854 54.6194 87.333 54.3369C88.1805 54.0544 89.0594 54.023 89.9384 54.0544C90.6917 54.0858 91.6021 54.0858 92.2299 54.5566C92.7949 55.0275 92.8577 55.8123 92.5438 56.4401C92.1985 57.1621 91.4451 57.6329 90.8173 58.1038C90.0012 58.6688 89.185 59.2339 88.3688 59.7989C86.7679 60.929 85.1356 62.0276 83.5346 63.1577C82.1848 64.0994 80.8351 65.0412 79.705 66.2654C79.8933 66.6107 80.0189 66.956 80.0817 67.3327C80.2072 67.3013 80.3328 67.3013 80.4584 67.3641C81.5571 67.9605 82.6243 68.5569 83.723 69.1847C88.0236 71.696 92.1985 74.4898 96.091 77.6288C99.9834 80.7365 103.593 84.1895 106.795 88.0192C110.091 91.943 112.948 96.1808 115.271 100.732C117.782 105.661 119.697 110.872 121.015 116.239C121.737 119.159 122.302 122.141 122.71 125.154C123.118 128.105 123.181 131.056 123.244 134.038C123.307 136.738 123.558 139.406 124.311 142.011C124.562 142.827 124.908 143.644 125.127 144.491C125.284 145.088 125.379 145.715 125.441 146.343C125.692 147.442 125.755 148.572 125.692 149.733ZM49.5385 57.319C49.0048 59.1711 48.4398 61.0231 47.8748 62.8438C50.6371 63.346 52.5834 66.0771 54.9063 67.4896C57.4176 69.0278 60.6508 70.1579 63.6015 69.53C65.2652 69.1847 66.6778 68.1175 68.059 67.1757C69.4716 66.2026 70.8528 65.1667 72.234 64.1308C74.2116 62.6554 76.1578 61.1487 78.1668 59.7361C77.3507 56.2517 76.4718 52.7988 75.7184 49.3144C74.808 49.0319 73.9919 48.561 73.3326 47.8704C73.1443 47.6821 73.1443 47.3996 73.3326 47.2112C73.521 47.0229 73.8035 47.0229 73.9919 47.2112C75.6556 48.9063 78.6691 49.1574 80.5839 47.7135C82.4988 46.3009 83.1266 43.3502 81.9651 41.247C80.8036 39.1752 77.9785 38.1393 75.7498 39.0182C75.4986 39.1124 75.2475 38.9868 75.1533 38.7357C75.0592 38.4846 75.1847 38.2335 75.4359 38.1393C75.6242 38.0765 75.8126 38.0137 76.0323 37.951L75.0278 37.6684C72.077 34.4038 73.6779 31.045 73.4896 28.157C73.2385 23.8879 71.1039 23.4484 68.5927 22.5381C66.5209 22.6008 64.5746 23.3856 62.8167 24.4215C61.0275 25.4888 59.3638 26.8072 57.6373 28.0314C55.9108 29.2871 54.1843 30.5113 52.4578 31.767C49.3501 34.0271 46.2425 36.2558 43.1034 38.4846C43.1975 38.5474 43.2917 38.5788 43.3545 38.6415C46.4936 40.525 49.664 42.4084 52.8345 44.2605C53.0229 44.3547 53.117 44.6058 53.0542 44.7941C52.8659 45.5161 52.6775 46.2067 52.4578 46.9287C51.5161 50.4131 50.543 53.866 49.5385 57.319ZM44.9554 67.2385C45.5205 67.8349 46.2111 68.3058 46.8703 68.808C47.4667 69.2475 48.0003 69.7498 48.534 70.2834C51.4533 73.3911 52.552 77.5974 54.5924 81.2388C56.6014 80.4854 58.9243 81.1132 60.9333 81.5841C62.3459 81.9294 63.7899 82.2433 65.2025 82.5886C66.4895 82.9025 67.8393 83.1222 69.0949 83.5617C69.8797 83.8442 70.7272 84.2837 71.0725 85.0685C72.5793 83.7814 73.5524 81.898 75.0906 80.6109C76.0323 79.7948 77.2879 79.167 77.9785 78.1311C78.418 77.5033 78.4493 76.6557 77.8529 76.2791C77.7588 76.3418 77.696 76.4046 77.6018 76.4674C77.3821 76.6557 77.1623 76.8441 76.9426 77.0324C76.5031 77.4405 76.1265 77.8486 75.7184 78.2881C75.5614 78.4764 75.2161 78.445 75.0591 78.2881C74.8708 78.0997 74.9022 77.8172 75.0591 77.6288C75.687 76.9068 76.3776 76.2477 77.0995 75.6512C77.0995 75.4943 77.1623 75.3059 77.3193 75.2431C78.0099 74.9606 78.6063 74.3956 78.7633 73.6422C78.9202 72.983 78.6691 72.3552 78.3238 71.7902C77.539 72.5121 76.7856 73.2341 76.0009 73.9561C75.8125 74.1445 75.53 74.1445 75.3417 73.9561C75.1533 73.7992 75.1533 73.4539 75.3417 73.2969C76.1892 72.5122 77.0368 71.7274 77.8843 70.9112C77.8843 70.8171 77.9471 70.6915 78.0099 70.6287C79.0458 69.7184 79.6422 68.3372 79.1399 67.0815C78.4493 67.8035 77.7274 68.4941 77.0368 69.2161C76.8484 69.4045 76.5659 69.3731 76.3776 69.2161C76.1892 69.0278 76.1892 68.7139 76.3776 68.5569C77.1937 67.7408 77.9785 66.9246 78.7946 66.1084C78.826 66.0457 78.8574 65.9829 78.8888 65.9201C79.4225 65.2923 80.0189 64.7586 80.6781 64.225C82.0279 63.1263 83.5033 62.1532 84.9472 61.1801C86.4854 60.1128 88.0235 59.0455 89.5617 57.9782C90.2523 57.5074 91.0371 57.0679 91.6021 56.4401C91.7904 56.2203 92.0102 55.8751 91.916 55.5612C91.8218 55.2786 91.4451 55.2158 91.1626 55.1531C90.3465 55.0275 89.4675 54.9647 88.6514 55.0903C87.7724 55.2159 86.9876 55.5925 86.2029 55.9692C80.3014 58.8885 75.2789 63.1891 69.9425 67.0188C68.5927 67.9919 67.2115 69.0278 65.7361 69.7811C64.4177 70.4403 62.9423 70.6915 61.467 70.6287C58.6418 70.4718 55.7852 69.3417 53.4623 67.678C52.1439 66.7363 51.0452 65.4492 49.6641 64.6017C48.4084 63.8169 46.8389 63.3775 45.4263 64.0053C44.8927 64.2564 44.3276 64.6645 44.2021 65.2609C44.0451 65.9829 44.4846 66.7362 44.9554 67.2385ZM18.1791 150.11C18.2419 150.047 18.3047 150.016 18.3674 149.985C18.0535 149.576 17.771 149.168 17.4885 148.76C16.8293 147.819 16.1387 146.908 15.2912 146.092C14.475 145.307 13.5333 144.648 12.5915 144.02C10.7081 142.765 8.6991 141.603 7.19234 139.908C5.56002 138.087 4.17884 136.016 3.23711 133.756C3.14294 133.567 3.08014 133.379 3.01736 133.19H2.98597C2.26399 133.222 1.63616 133.661 1.29086 134.289C0.882785 135.043 0.945597 135.921 1.16533 136.706C1.51063 138.087 1.91869 139.814 3.29988 140.505C3.61379 140.661 3.5824 141.164 3.29988 141.321C2.23259 141.917 1.41645 143.141 1.66758 144.428C1.9187 145.653 2.986 146.563 4.14745 146.877C4.52414 147.002 4.61828 147.536 4.27299 147.724C3.39405 148.258 3.20573 149.231 3.51964 150.173C4.21024 152.339 7.00399 152.81 8.95022 152.998C11.2104 153.218 13.5961 153.155 15.6678 154.16C15.6992 153.877 15.7306 153.626 15.8248 153.343C16.2015 152.088 17.206 151.052 18.1791 150.11ZM43.4487 164.581C42.7895 163.671 42.1303 162.792 41.3769 161.944C40.3724 160.783 39.3051 159.684 38.1122 158.743C36.1974 157.236 34 156.357 31.6771 155.729C28.5694 154.881 25.4304 154.128 22.3855 153.124C21.8518 152.935 21.2868 152.81 20.8159 152.464C20.3765 152.15 19.9684 151.805 19.5917 151.429C19.372 151.209 19.1522 150.958 18.9325 150.707C18.9011 150.738 18.9011 150.769 18.8697 150.801C17.8966 151.774 16.5782 152.967 16.5782 154.442C16.5468 155.792 17.6768 156.89 18.7127 157.612C20.5334 158.899 22.668 159.684 24.8339 160.249C27.1568 160.877 29.5112 161.254 31.8655 161.662C35.6951 162.29 39.8387 162.855 43.4487 164.581ZM71.0725 161.474C70.5075 161.285 70.7586 160.406 71.3237 160.563C71.4492 160.595 71.5434 160.626 71.669 160.657C71.669 160.657 71.669 160.657 71.669 160.626C73.8035 157.707 75.2161 154.348 75.9067 150.801C77.3507 143.236 75.4672 135.294 72.4537 128.356C71.6376 126.473 70.5703 124.684 69.8797 122.737C69.2832 121.042 69.0007 119.253 69.0321 117.495C69.0635 114.136 70.1622 110.934 70.947 107.701C71.7317 104.405 72.077 101.078 70.8842 97.8445C70.5389 96.9028 70.068 95.9924 69.5344 95.1449C69.2205 94.6426 68.9066 94.1718 68.5613 93.7323C68.216 93.2614 67.6823 92.822 67.4312 92.2883C67.2115 91.8489 67.0231 91.2838 66.929 90.7188H66.9917C67.0859 89.1179 68.8438 88.1134 69.7855 86.9833C70.1308 86.5752 70.5075 86.0102 70.2564 85.4137C69.9111 84.5976 68.7496 84.3151 67.9962 84.1267C65.3908 83.4675 62.7226 82.9025 60.1171 82.2747C59.1126 82.0549 58.1082 81.8352 57.0723 81.8038C56.1933 81.7724 55.2516 81.8352 54.4668 82.3061C53.5565 82.8397 53.3054 83.7814 53.3054 84.7546C53.3054 85.8218 53.4937 86.8263 53.3368 87.8936C53.2426 88.4901 52.3322 88.2389 52.4264 87.6425C52.6461 86.3869 52.2381 85.0999 52.4264 83.8128C52.552 82.9025 53.0542 82.1491 53.7762 81.6469C52.6776 79.732 51.8614 77.6602 50.9197 75.6512C50.3233 74.3642 49.6326 73.14 48.7851 71.9785C47.8434 70.7229 46.6505 69.7811 45.4263 68.8394C45.3007 68.7452 45.1438 68.6197 45.0182 68.4941C43.0092 69.7811 41.628 70.7543 39.6504 72.1354C32.2422 77.2207 25.2734 82.9653 19.5917 89.9026C16.6723 93.4498 14.2553 97.2794 11.8696 101.172C9.29553 105.378 6.81565 109.71 5.02637 114.325C3.39405 118.468 2.29538 122.894 2.64068 127.383C3.01737 131.966 5.08915 136.424 8.3224 139.688C9.92333 141.321 11.9637 142.419 13.8472 143.706C14.7575 144.334 15.6678 145.056 16.4526 145.872C17.206 146.657 17.8338 147.567 18.493 148.478C19.1522 149.388 19.8114 150.298 20.659 151.052C21.0985 151.46 21.5693 151.805 22.1657 151.994C22.6366 152.15 23.1074 152.307 23.5783 152.464C25.2106 152.998 26.8743 153.469 28.5381 153.877C30.9865 154.505 33.4978 155.038 35.7893 156.137C38.2692 157.299 40.3096 159.182 42.0988 161.254C43.48 162.823 44.7043 164.518 45.9285 166.214C47.1528 167.94 48.8793 169.321 50.8255 170.2C52.6462 171.016 54.6866 171.299 56.6642 171.016C57.6687 170.859 58.6418 170.577 59.5835 170.2C60.6194 169.729 61.5297 169.039 62.5028 168.505C65.7047 166.716 68.7182 164.393 71.0725 161.474ZM124.531 145.81C124.28 144.303 123.652 142.89 123.275 141.415C122.93 140.096 122.71 138.747 122.585 137.397C122.334 134.854 122.428 132.28 122.302 129.706C122.02 123.742 120.764 117.746 119.006 112.065C117.437 107.042 115.302 102.176 112.634 97.6248C110.091 93.3556 107.078 89.369 103.688 85.759C100.36 82.2119 96.656 79.01 92.7322 76.1221C88.7769 73.2028 84.602 70.6287 80.3014 68.2744C80.2073 69.2789 79.7364 70.252 79.0144 71.0054C79.5794 71.8529 79.9875 72.826 79.7364 73.8619C79.5794 74.5525 79.14 75.149 78.5749 75.5884C79.0458 75.9965 79.3283 76.6243 79.2655 77.3149C79.1713 78.3508 78.4807 79.1356 77.696 79.7634C76.817 80.4854 75.8125 81.1132 75.0278 81.9608C73.7407 83.342 72.7676 85.0057 71.2609 86.1357C71.1981 86.6066 70.9784 87.0461 70.6959 87.4541C70.1936 88.1134 69.5658 88.647 68.9694 89.212C68.5299 89.6515 67.9648 90.1852 67.9335 90.8444C67.9962 91.2211 68.0904 91.6605 68.2787 91.9744C68.5299 92.3825 68.9379 92.7592 69.2519 93.1673C71.6062 96.2435 72.8932 99.8849 72.5793 103.809C72.3282 107.136 71.1667 110.307 70.4761 113.54C69.7227 117.087 69.8169 120.666 71.4178 123.993C72.3282 125.908 73.3013 127.791 74.086 129.769C74.8394 131.684 75.4986 133.63 76.0323 135.608C77.9157 142.796 78.0727 150.644 74.7767 157.456C74.1802 158.68 73.4896 159.841 72.7048 160.94C73.8349 161.222 75.0278 161.379 76.1892 161.411C79.2969 161.568 82.3732 161.065 85.4809 160.94C87.0818 160.877 88.7141 160.94 90.2837 161.16C91.7904 161.379 93.2658 161.693 94.7726 161.882C99.952 162.541 105.257 162.729 110.437 161.882C114.455 161.222 118.692 159.904 121.612 156.953C124.5 153.971 125.19 149.828 124.531 145.81ZM95.6515 131.307C96.4049 131.998 96.0596 132.971 95.4631 133.63C94.7725 134.415 93.6739 135.074 92.6066 134.886C91.759 134.76 91.2254 134.069 91.037 133.285C91.0057 133.159 90.9743 133.002 90.9115 132.877C90.3464 133.347 89.8756 133.912 89.3419 134.446C88.6513 135.137 87.898 135.702 86.9876 136.11C85.2297 136.926 83.2208 137.24 81.2745 136.957C80.6781 136.863 80.9292 135.953 81.5257 136.047C82.0279 136.11 82.4988 136.141 83.001 136.11C85.0728 136.016 87.1132 135.294 88.62 133.818C89.2478 133.19 89.8442 132.531 90.5348 131.966C89.4675 129.643 87.3643 127.917 86.0773 125.719C85.324 124.432 84.9159 123.02 85.1984 121.513C85.3553 120.603 85.8262 119.818 86.2343 119.033C86.6424 118.311 87.3329 117.244 86.9876 116.365C86.6423 115.455 85.3239 115.298 84.5392 114.921C83.6602 114.513 82.8755 113.917 82.1849 113.257C80.8351 111.908 79.8933 110.118 79.6108 108.235C79.5166 107.638 80.427 107.387 80.5211 107.984C80.8037 110.024 81.8709 111.876 83.4719 113.163C84.2566 113.791 85.1356 114.199 86.0773 114.544C87.0818 114.921 87.9294 115.549 87.9922 116.71C88.0863 118.5 86.4854 119.912 86.1087 121.607C85.7948 122.926 86.2343 124.213 86.9249 125.374C88.2119 127.509 90.2209 129.204 91.3196 131.464C91.9788 131.119 92.7007 130.93 93.4227 130.836C94.1761 130.742 95.0865 130.805 95.6515 131.307ZM93.7681 131.746C93.0775 131.778 92.3241 131.966 91.6962 132.312C91.7276 132.374 91.7277 132.406 91.759 132.468C91.9474 133.034 92.0102 133.85 92.7322 133.975C93.2658 134.069 93.8308 133.756 94.2389 133.442C94.5842 133.19 94.9609 132.845 95.0865 132.437C95.3376 131.747 94.1761 131.715 93.7681 131.746ZM66.3639 29.7266C65.6105 30.5741 65.0455 31.5472 64.6688 32.6145C64.5746 32.8343 64.763 33.1481 64.9827 33.1795C65.2338 33.2423 65.485 33.0854 65.5478 32.8656C65.5792 32.7401 65.6419 32.6459 65.6733 32.5203C65.6733 32.4889 65.7047 32.4575 65.7047 32.4261V32.3948C65.7361 32.332 65.7675 32.2692 65.7675 32.2378C65.8617 32.0181 65.9872 31.767 66.1128 31.5472C66.2383 31.3275 66.3639 31.1392 66.5209 30.9194C66.5523 30.8566 66.5837 30.8252 66.6151 30.7625C66.6151 30.7625 66.6151 30.7625 66.6151 30.7311C66.6151 30.7311 66.6151 30.731 66.6151 30.6997C66.6464 30.6683 66.6464 30.6369 66.6778 30.6369C66.772 30.5427 66.8348 30.4485 66.929 30.323C67.0859 30.1346 67.1173 29.8207 66.929 29.6638C66.8348 29.5696 66.5209 29.5382 66.3639 29.7266ZM61.31 32.8342C61.5611 32.9598 61.8123 32.8656 61.9692 32.6773C62.5656 31.8297 63.162 30.9822 63.7585 30.1346C63.9154 29.9463 63.7899 29.601 63.6015 29.4754C63.3504 29.3499 63.0993 29.4441 62.9423 29.6324C62.3459 30.48 61.7495 31.3275 61.1531 32.175C60.9961 32.3948 61.0903 32.7401 61.31 32.8342ZM61.8123 27.2781C62.597 27.4664 63.4132 27.6548 64.1979 27.8431C64.4491 27.9059 64.7316 27.7803 64.763 27.5292C64.8258 27.2781 64.7002 26.9956 64.4491 26.9642C63.6643 26.7758 62.8482 26.5875 62.0634 26.3991C61.8123 26.3364 61.5297 26.4619 61.4984 26.713C61.4042 26.9328 61.5611 27.2153 61.8123 27.2781ZM66.0186 26.5561C66.2384 26.6817 66.5523 26.6189 66.6778 26.3991C66.8976 25.9597 67.2115 25.6144 67.6509 25.3947C68.0276 25.2063 68.4357 25.1121 68.8438 25.2691C68.8438 25.2691 68.9379 25.3005 68.9379 25.3318C68.9693 25.3632 69.0007 25.3633 69.0321 25.3947C69.0635 25.3947 69.0635 25.426 69.0949 25.426C69.0949 25.426 69.0949 25.426 69.1263 25.4574C69.1577 25.4888 69.2205 25.5202 69.2519 25.583C69.2519 25.583 69.3147 25.6771 69.346 25.6771C69.3774 25.7085 69.3774 25.7399 69.4088 25.7713C69.4402 25.8341 69.4716 25.8655 69.503 25.9283C69.503 25.9597 69.5344 25.991 69.5344 25.991C69.5658 26.0852 69.5972 26.1794 69.6286 26.2736C69.6286 26.2736 69.6286 26.2736 69.6286 26.305C69.6286 26.3363 69.6286 26.3364 69.6286 26.3678C69.6286 26.4305 69.6286 26.4619 69.6286 26.5247C69.6286 26.5247 69.6286 26.5247 69.6286 26.5561C69.6286 26.6189 69.5972 26.6503 69.5972 26.713C69.5972 26.713 69.5972 26.713 69.5972 26.7444C69.5972 26.7758 69.5658 26.7758 69.5658 26.8072C69.5658 26.8386 69.4716 26.9642 69.5344 26.87C69.3774 27.0583 69.346 27.3409 69.5344 27.5292C69.6913 27.6862 70.0366 27.7175 70.1936 27.5292C70.5075 27.1525 70.6331 26.6817 70.5703 26.1794C70.5075 25.7086 70.2878 25.2691 69.9739 24.9552C69.2205 24.1704 68.059 24.1704 67.1801 24.704C66.6464 25.0179 66.2069 25.4888 65.9558 26.0225C65.7047 26.148 65.7675 26.4305 66.0186 26.5561ZM54.9377 61.0859C55.0946 61.2743 55.4399 61.2429 55.5969 61.0859C55.7852 60.8976 55.7538 60.6151 55.5969 60.4267C54.9691 59.642 54.5296 58.7316 54.2785 57.7899C54.0901 57.0993 53.9018 56.0948 54.3412 55.4356C54.8121 54.745 55.6911 55.31 56.0364 55.8437C56.3189 56.2518 56.413 56.754 56.5386 57.2248C56.6642 57.7271 56.8211 58.2294 57.0409 58.7316C57.3234 59.2653 58.1082 58.7944 57.857 58.2607C57.4176 57.3818 57.4176 56.3773 56.9467 55.5298C56.5386 54.8078 55.7852 54.1486 54.9063 54.18C54.0587 54.2113 53.4623 54.8705 53.274 55.6553C53.0543 56.5029 53.2112 57.4132 53.4623 58.2607C53.7448 59.2653 54.2471 60.2384 54.9377 61.0859ZM51.2964 88.3017C45.4263 90.6874 41.2199 96.3377 40.2154 102.553C39.9643 104.091 39.9015 105.692 40.0584 107.262C40.1526 108.046 40.2782 108.831 40.4665 109.585C40.7177 110.621 41.063 111.656 41.2199 112.692C41.5024 114.482 41.0316 116.114 39.9957 117.558C39.0226 118.939 37.7042 120.101 36.4171 121.199C33.6861 123.616 30.2645 127.415 32.148 131.338C32.3991 131.872 33.2153 131.401 32.9641 130.868C31.3946 127.572 34.5337 124.181 36.7938 122.141C39.1481 120.038 41.9105 117.746 42.2244 114.387C42.4128 112.41 41.5966 110.495 41.1885 108.58C40.8746 107.105 40.8118 105.598 40.9374 104.091C41.1885 101.078 42.2244 98.127 43.8881 95.6157C45.7402 92.7906 48.377 90.4677 51.5161 89.1806C52.0811 88.9609 51.8614 88.0506 51.2964 88.3017ZM75.8439 43.978C75.8753 43.9466 75.9067 43.9152 75.9381 43.8524C76.0009 43.7896 76.0323 43.7268 76.0951 43.6641C76.2206 43.5385 76.3148 43.4129 76.4403 43.3188C76.6915 43.099 76.8798 42.9421 77.1623 42.7537C77.7274 42.4084 78.2296 42.1573 78.8575 42.0003C79.1086 41.9375 79.2655 41.6551 79.1714 41.4353C79.1086 41.1842 78.826 41.0586 78.6063 41.1214C77.1623 41.4667 75.9067 42.3456 75.0278 43.5071C74.8708 43.6954 74.9964 44.0407 75.1847 44.1663C75.4358 44.2919 75.687 44.1663 75.8439 43.978Z" fill="#1E1E1E"/>
</svg>
